<mxfile host="app.diagrams.net" modified="2024-06-08T01:47:06.315Z" agent="Mozilla/5.0 (X11; Linux x86_64) AppleWebKit/537.36 (KHTML, like Gecko) Chrome/124.0.0.0 Safari/537.36" etag="gm8fDLmfR97IsJlxnin-" version="24.5.2" type="device" pages="5">
  <diagram id="BAfZD72lIiWhXa0TtDy-" name="Духовка ИМ">
    <mxGraphModel dx="1674" dy="689" grid="1" gridSize="10" guides="1" tooltips="1" connect="1" arrows="1" fold="1" page="1" pageScale="1" pageWidth="827" pageHeight="1169" background="#FFFFFF" math="0" shadow="0">
      <root>
        <mxCell id="0" />
        <mxCell id="1" parent="0" />
        <mxCell id="Bxg4SAk7QioH_1-MqU8l-1" value="1. Духовка (ДУ)" style="swimlane;fontStyle=0;childLayout=stackLayout;horizontal=1;startSize=26;fillColor=#d5e8d4;horizontalStack=0;resizeParent=1;resizeParentMax=0;resizeLast=0;collapsible=1;marginBottom=0;strokeColor=#82b366;" parent="1" vertex="1">
          <mxGeometry x="260" y="20" width="196" height="182" as="geometry" />
        </mxCell>
        <mxCell id="Bxg4SAk7QioH_1-MqU8l-2" value="* ID Духовки" style="text;strokeColor=none;fillColor=none;align=left;verticalAlign=top;spacingLeft=4;spacingRight=4;overflow=hidden;rotatable=0;points=[[0,0.5],[1,0.5]];portConstraint=eastwest;" parent="Bxg4SAk7QioH_1-MqU8l-1" vertex="1">
          <mxGeometry y="26" width="196" height="26" as="geometry" />
        </mxCell>
        <mxCell id="Bxg4SAk7QioH_1-MqU8l-3" value="- ID Электровилки (R12)" style="text;strokeColor=none;fillColor=none;align=left;verticalAlign=top;spacingLeft=4;spacingRight=4;overflow=hidden;rotatable=0;points=[[0,0.5],[1,0.5]];portConstraint=eastwest;" parent="Bxg4SAk7QioH_1-MqU8l-1" vertex="1">
          <mxGeometry y="52" width="196" height="26" as="geometry" />
        </mxCell>
        <mxCell id="Bxg4SAk7QioH_1-MqU8l-36" value="- ID Нагревателя (R13)" style="text;strokeColor=none;fillColor=none;align=left;verticalAlign=top;spacingLeft=4;spacingRight=4;overflow=hidden;rotatable=0;points=[[0,0.5],[1,0.5]];portConstraint=eastwest;" parent="Bxg4SAk7QioH_1-MqU8l-1" vertex="1">
          <mxGeometry y="78" width="196" height="26" as="geometry" />
        </mxCell>
        <mxCell id="Bxg4SAk7QioH_1-MqU8l-4" value="- ID Регулятор нагрева (R14)" style="text;strokeColor=none;fillColor=none;align=left;verticalAlign=top;spacingLeft=4;spacingRight=4;overflow=hidden;rotatable=0;points=[[0,0.5],[1,0.5]];portConstraint=eastwest;" parent="Bxg4SAk7QioH_1-MqU8l-1" vertex="1">
          <mxGeometry y="104" width="196" height="26" as="geometry" />
        </mxCell>
        <mxCell id="Bxg4SAk7QioH_1-MqU8l-37" value="- ID Таймера (R15)" style="text;strokeColor=none;fillColor=none;align=left;verticalAlign=top;spacingLeft=4;spacingRight=4;overflow=hidden;rotatable=0;points=[[0,0.5],[1,0.5]];portConstraint=eastwest;" parent="Bxg4SAk7QioH_1-MqU8l-1" vertex="1">
          <mxGeometry y="130" width="196" height="26" as="geometry" />
        </mxCell>
        <mxCell id="-iDoBAoBr8smOl4_uLUE-1" value="- Состояние" style="text;strokeColor=none;fillColor=none;align=left;verticalAlign=top;spacingLeft=4;spacingRight=4;overflow=hidden;rotatable=0;points=[[0,0.5],[1,0.5]];portConstraint=eastwest;" parent="Bxg4SAk7QioH_1-MqU8l-1" vertex="1">
          <mxGeometry y="156" width="196" height="26" as="geometry" />
        </mxCell>
        <mxCell id="Bxg4SAk7QioH_1-MqU8l-38" style="edgeStyle=orthogonalEdgeStyle;orthogonalLoop=1;jettySize=auto;html=1;startArrow=classic;startFill=1;" parent="1" source="Bxg4SAk7QioH_1-MqU8l-6" target="Bxg4SAk7QioH_1-MqU8l-1" edge="1">
          <mxGeometry relative="1" as="geometry">
            <Array as="points">
              <mxPoint x="210" y="270" />
              <mxPoint x="210" y="111" />
            </Array>
          </mxGeometry>
        </mxCell>
        <mxCell id="Bxg4SAk7QioH_1-MqU8l-43" value="R12" style="edgeLabel;html=1;align=center;verticalAlign=middle;resizable=0;points=[];" parent="Bxg4SAk7QioH_1-MqU8l-38" vertex="1" connectable="0">
          <mxGeometry x="-0.0636" y="-63" relative="1" as="geometry">
            <mxPoint x="-63" y="-27" as="offset" />
          </mxGeometry>
        </mxCell>
        <mxCell id="Bxg4SAk7QioH_1-MqU8l-6" value="2. Электровилка (ЭВ)" style="swimlane;fontStyle=0;childLayout=stackLayout;horizontal=1;startSize=26;fillColor=#f8cecc;horizontalStack=0;resizeParent=1;resizeParentMax=0;resizeLast=0;collapsible=1;marginBottom=0;strokeColor=#b85450;" parent="1" vertex="1">
          <mxGeometry x="20" y="230" width="140" height="78" as="geometry" />
        </mxCell>
        <mxCell id="Bxg4SAk7QioH_1-MqU8l-7" value="* ID Электровилки" style="text;strokeColor=none;fillColor=none;align=left;verticalAlign=top;spacingLeft=4;spacingRight=4;overflow=hidden;rotatable=0;points=[[0,0.5],[1,0.5]];portConstraint=eastwest;" parent="Bxg4SAk7QioH_1-MqU8l-6" vertex="1">
          <mxGeometry y="26" width="140" height="26" as="geometry" />
        </mxCell>
        <mxCell id="Bxg4SAk7QioH_1-MqU8l-8" value="- Состояние" style="text;strokeColor=none;fillColor=none;align=left;verticalAlign=top;spacingLeft=4;spacingRight=4;overflow=hidden;rotatable=0;points=[[0,0.5],[1,0.5]];portConstraint=eastwest;" parent="Bxg4SAk7QioH_1-MqU8l-6" vertex="1">
          <mxGeometry y="52" width="140" height="26" as="geometry" />
        </mxCell>
        <mxCell id="Bxg4SAk7QioH_1-MqU8l-44" style="edgeStyle=orthogonalEdgeStyle;orthogonalLoop=1;jettySize=auto;html=1;startArrow=classic;startFill=1;" parent="1" source="Bxg4SAk7QioH_1-MqU8l-10" target="-iDoBAoBr8smOl4_uLUE-1" edge="1">
          <mxGeometry relative="1" as="geometry">
            <Array as="points">
              <mxPoint x="260" y="270" />
              <mxPoint x="320" y="270" />
            </Array>
            <mxPoint x="310" y="240" as="targetPoint" />
          </mxGeometry>
        </mxCell>
        <mxCell id="Bxg4SAk7QioH_1-MqU8l-45" value="R13" style="edgeLabel;html=1;align=center;verticalAlign=middle;resizable=0;points=[];" parent="Bxg4SAk7QioH_1-MqU8l-44" vertex="1" connectable="0">
          <mxGeometry x="0.4053" y="-48" relative="1" as="geometry">
            <mxPoint x="-57" y="-9" as="offset" />
          </mxGeometry>
        </mxCell>
        <mxCell id="Bxg4SAk7QioH_1-MqU8l-10" value="3. Нагреватель (Н)" style="swimlane;fontStyle=0;childLayout=stackLayout;horizontal=1;startSize=26;fillColor=#e1d5e7;horizontalStack=0;resizeParent=1;resizeParentMax=0;resizeLast=0;collapsible=1;marginBottom=0;strokeColor=#9673a6;" parent="1" vertex="1">
          <mxGeometry x="190" y="370" width="148" height="78" as="geometry" />
        </mxCell>
        <mxCell id="Bxg4SAk7QioH_1-MqU8l-11" value="* ID Нагревателя" style="text;strokeColor=none;fillColor=none;align=left;verticalAlign=top;spacingLeft=4;spacingRight=4;overflow=hidden;rotatable=0;points=[[0,0.5],[1,0.5]];portConstraint=eastwest;" parent="Bxg4SAk7QioH_1-MqU8l-10" vertex="1">
          <mxGeometry y="26" width="148" height="26" as="geometry" />
        </mxCell>
        <mxCell id="Bxg4SAk7QioH_1-MqU8l-12" value="- Состояние" style="text;strokeColor=none;fillColor=none;align=left;verticalAlign=top;spacingLeft=4;spacingRight=4;overflow=hidden;rotatable=0;points=[[0,0.5],[1,0.5]];portConstraint=eastwest;" parent="Bxg4SAk7QioH_1-MqU8l-10" vertex="1">
          <mxGeometry y="52" width="148" height="26" as="geometry" />
        </mxCell>
        <mxCell id="Bxg4SAk7QioH_1-MqU8l-46" style="edgeStyle=orthogonalEdgeStyle;orthogonalLoop=1;jettySize=auto;html=1;startArrow=classic;startFill=1;" parent="1" source="Bxg4SAk7QioH_1-MqU8l-14" target="Bxg4SAk7QioH_1-MqU8l-1" edge="1">
          <mxGeometry relative="1" as="geometry">
            <Array as="points">
              <mxPoint x="475" y="270" />
              <mxPoint x="410" y="270" />
            </Array>
          </mxGeometry>
        </mxCell>
        <mxCell id="Bxg4SAk7QioH_1-MqU8l-47" value="R14" style="edgeLabel;html=1;align=center;verticalAlign=middle;resizable=0;points=[];" parent="Bxg4SAk7QioH_1-MqU8l-46" vertex="1" connectable="0">
          <mxGeometry x="-0.2989" relative="1" as="geometry">
            <mxPoint x="-4" y="-2" as="offset" />
          </mxGeometry>
        </mxCell>
        <mxCell id="Bxg4SAk7QioH_1-MqU8l-50" style="edgeStyle=orthogonalEdgeStyle;orthogonalLoop=1;jettySize=auto;html=1;startArrow=classic;startFill=1;" parent="1" source="Bxg4SAk7QioH_1-MqU8l-30" target="Bxg4SAk7QioH_1-MqU8l-1" edge="1">
          <mxGeometry relative="1" as="geometry">
            <Array as="points">
              <mxPoint x="510" y="260" />
              <mxPoint x="510" y="111" />
            </Array>
          </mxGeometry>
        </mxCell>
        <mxCell id="Bxg4SAk7QioH_1-MqU8l-51" value="R15" style="edgeLabel;html=1;align=center;verticalAlign=middle;resizable=0;points=[];" parent="Bxg4SAk7QioH_1-MqU8l-50" vertex="1" connectable="0">
          <mxGeometry x="0.2283" relative="1" as="geometry">
            <mxPoint x="-10" as="offset" />
          </mxGeometry>
        </mxCell>
        <mxCell id="Bxg4SAk7QioH_1-MqU8l-14" value="4. Регулятор температуры (РТ)" style="swimlane;fontStyle=0;childLayout=stackLayout;horizontal=1;startSize=26;fillColor=#b1ddf0;horizontalStack=0;resizeParent=1;resizeParentMax=0;resizeLast=0;collapsible=1;marginBottom=0;strokeColor=#10739e;" parent="1" vertex="1">
          <mxGeometry x="380" y="370" width="190" height="78" as="geometry">
            <mxRectangle x="240" y="280" width="180" height="26" as="alternateBounds" />
          </mxGeometry>
        </mxCell>
        <mxCell id="Bxg4SAk7QioH_1-MqU8l-15" value="* ID Регулятора температуры" style="text;strokeColor=none;fillColor=none;align=left;verticalAlign=top;spacingLeft=4;spacingRight=4;overflow=hidden;rotatable=0;points=[[0,0.5],[1,0.5]];portConstraint=eastwest;" parent="Bxg4SAk7QioH_1-MqU8l-14" vertex="1">
          <mxGeometry y="26" width="190" height="26" as="geometry" />
        </mxCell>
        <mxCell id="Bxg4SAk7QioH_1-MqU8l-16" value="- Состояние" style="text;strokeColor=none;fillColor=none;align=left;verticalAlign=top;spacingLeft=4;spacingRight=4;overflow=hidden;rotatable=0;points=[[0,0.5],[1,0.5]];portConstraint=eastwest;" parent="Bxg4SAk7QioH_1-MqU8l-14" vertex="1">
          <mxGeometry y="52" width="190" height="26" as="geometry" />
        </mxCell>
        <mxCell id="Bxg4SAk7QioH_1-MqU8l-30" value="5. Таймер (ТМ)" style="swimlane;fontStyle=0;childLayout=stackLayout;horizontal=1;startSize=26;fillColor=#ffcc99;horizontalStack=0;resizeParent=1;resizeParentMax=0;resizeLast=0;collapsible=1;marginBottom=0;strokeColor=#36393d;" parent="1" vertex="1">
          <mxGeometry x="630" y="227" width="130" height="104" as="geometry" />
        </mxCell>
        <mxCell id="Bxg4SAk7QioH_1-MqU8l-31" value="* ID Таймера" style="text;strokeColor=none;fillColor=none;align=left;verticalAlign=top;spacingLeft=4;spacingRight=4;overflow=hidden;rotatable=0;points=[[0,0.5],[1,0.5]];portConstraint=eastwest;" parent="Bxg4SAk7QioH_1-MqU8l-30" vertex="1">
          <mxGeometry y="26" width="130" height="26" as="geometry" />
        </mxCell>
        <mxCell id="Bxg4SAk7QioH_1-MqU8l-32" value="- Время" style="text;strokeColor=none;fillColor=none;align=left;verticalAlign=top;spacingLeft=4;spacingRight=4;overflow=hidden;rotatable=0;points=[[0,0.5],[1,0.5]];portConstraint=eastwest;" parent="Bxg4SAk7QioH_1-MqU8l-30" vertex="1">
          <mxGeometry y="52" width="130" height="26" as="geometry" />
        </mxCell>
        <mxCell id="42nqaVoXZhNGfvrAsucc-1" value="- Состояние" style="text;strokeColor=none;fillColor=none;align=left;verticalAlign=top;spacingLeft=4;spacingRight=4;overflow=hidden;rotatable=0;points=[[0,0.5],[1,0.5]];portConstraint=eastwest;" parent="Bxg4SAk7QioH_1-MqU8l-30" vertex="1">
          <mxGeometry y="78" width="130" height="26" as="geometry" />
        </mxCell>
      </root>
    </mxGraphModel>
  </diagram>
  <diagram id="ebhZCT4FMkohqddJLS-g" name="Духовка ДПС">
    <mxGraphModel dx="2501" dy="689" grid="1" gridSize="10" guides="1" tooltips="1" connect="1" arrows="1" fold="1" page="1" pageScale="1" pageWidth="827" pageHeight="1169" math="0" shadow="0">
      <root>
        <mxCell id="WTVdDayBTQ0MTywDv6Mj-0" />
        <mxCell id="WTVdDayBTQ0MTywDv6Mj-1" parent="WTVdDayBTQ0MTywDv6Mj-0" />
        <mxCell id="Lncw49TM1H4KjZ_BzUi1-0" value="&lt;b style=&quot;font-size: 16px&quot;&gt;Духовка&lt;/b&gt;" style="text;html=1;align=center;verticalAlign=middle;resizable=0;points=[];autosize=1;fontSize=16;" parent="WTVdDayBTQ0MTywDv6Mj-1" vertex="1">
          <mxGeometry x="-156.5" y="10" width="80" height="20" as="geometry" />
        </mxCell>
        <mxCell id="Lncw49TM1H4KjZ_BzUi1-1" value="1. Выключена" style="html=1;fillColor=#d5e8d4;strokeColor=#82b366;" parent="WTVdDayBTQ0MTywDv6Mj-1" vertex="1">
          <mxGeometry x="-56.25" y="95" width="131" height="30" as="geometry" />
        </mxCell>
        <mxCell id="98ti1gU637mouh8DQ8eZ-12" style="edgeStyle=orthogonalEdgeStyle;curved=0;rounded=1;sketch=0;orthogonalLoop=1;jettySize=auto;html=1;exitX=0;exitY=0;exitDx=0;exitDy=0;entryX=0;entryY=0.5;entryDx=0;entryDy=0;fontSize=15;" parent="WTVdDayBTQ0MTywDv6Mj-1" source="ZIPZsvDPKa_kzXNjzI4_-5" target="Lncw49TM1H4KjZ_BzUi1-1" edge="1">
          <mxGeometry relative="1" as="geometry">
            <Array as="points">
              <mxPoint x="29" y="220" />
              <mxPoint x="-133" y="220" />
              <mxPoint x="-133" y="110" />
            </Array>
            <mxPoint x="34.749999999999545" y="250.0000000000001" as="sourcePoint" />
            <mxPoint x="-133.5" y="200" as="targetPoint" />
          </mxGeometry>
        </mxCell>
        <mxCell id="98ti1gU637mouh8DQ8eZ-13" value="ДУ2" style="edgeLabel;html=1;align=center;verticalAlign=middle;resizable=0;points=[];fontSize=12;" parent="98ti1gU637mouh8DQ8eZ-12" vertex="1" connectable="0">
          <mxGeometry x="-0.2841" y="1" relative="1" as="geometry">
            <mxPoint x="-39" y="-118" as="offset" />
          </mxGeometry>
        </mxCell>
        <mxCell id="Lncw49TM1H4KjZ_BzUi1-13" value="&lt;b&gt;ДУ1:&lt;/b&gt;&amp;nbsp;Подключить в сеть" style="text;html=1;align=left;verticalAlign=middle;resizable=0;points=[];autosize=1;" parent="WTVdDayBTQ0MTywDv6Mj-1" vertex="1">
          <mxGeometry x="212" y="32.5" width="150" height="20" as="geometry" />
        </mxCell>
        <mxCell id="Lncw49TM1H4KjZ_BzUi1-14" value="&lt;b&gt;ДУ2:&lt;/b&gt;&amp;nbsp;Выключить из сети" style="text;html=1;align=left;verticalAlign=middle;resizable=0;points=[];autosize=1;" parent="WTVdDayBTQ0MTywDv6Mj-1" vertex="1">
          <mxGeometry x="212" y="62.5" width="150" height="20" as="geometry" />
        </mxCell>
        <mxCell id="Lncw49TM1H4KjZ_BzUi1-18" value="&lt;b&gt;ДУ3:&lt;/b&gt;&amp;nbsp;Установить температуру" style="text;html=1;align=left;verticalAlign=middle;resizable=0;points=[];autosize=1;" parent="WTVdDayBTQ0MTywDv6Mj-1" vertex="1">
          <mxGeometry x="212" y="92.5" width="180" height="20" as="geometry" />
        </mxCell>
        <mxCell id="b4PxU3jFzDO1NrmyhvWv-9" style="edgeStyle=orthogonalEdgeStyle;rounded=1;orthogonalLoop=1;jettySize=auto;html=1;startArrow=none;startFill=0;endArrow=classic;endFill=1;entryX=0;entryY=0.5;entryDx=0;entryDy=0;exitX=0.75;exitY=0;exitDx=0;exitDy=0;" parent="WTVdDayBTQ0MTywDv6Mj-1" source="b4PxU3jFzDO1NrmyhvWv-0" target="ZIPZsvDPKa_kzXNjzI4_-5" edge="1">
          <mxGeometry relative="1" as="geometry">
            <mxPoint x="34.74999999999977" y="265.0000000000001" as="targetPoint" />
            <Array as="points">
              <mxPoint x="-121.25" y="265" />
            </Array>
            <mxPoint x="-96.25" y="290" as="sourcePoint" />
          </mxGeometry>
        </mxCell>
        <mxCell id="hgGM4-Haj7C2qqy3yOSG-8" value="ДУ4" style="edgeLabel;html=1;align=center;verticalAlign=middle;resizable=0;points=[];fontSize=12;" parent="b4PxU3jFzDO1NrmyhvWv-9" vertex="1" connectable="0">
          <mxGeometry x="-0.0501" relative="1" as="geometry">
            <mxPoint x="-36" y="40" as="offset" />
          </mxGeometry>
        </mxCell>
        <mxCell id="hgGM4-Haj7C2qqy3yOSG-11" style="edgeStyle=orthogonalEdgeStyle;orthogonalLoop=1;jettySize=auto;html=1;fontSize=12;entryX=0;entryY=0.5;entryDx=0;entryDy=0;exitX=0.5;exitY=0;exitDx=0;exitDy=0;" parent="WTVdDayBTQ0MTywDv6Mj-1" source="b4PxU3jFzDO1NrmyhvWv-0" target="Lncw49TM1H4KjZ_BzUi1-1" edge="1">
          <mxGeometry relative="1" as="geometry">
            <mxPoint x="-166.25" y="200" as="targetPoint" />
            <mxPoint x="-199.25" y="286" as="sourcePoint" />
          </mxGeometry>
        </mxCell>
        <mxCell id="b4PxU3jFzDO1NrmyhvWv-0" value="3. В процессе приготовления" style="html=1;fillColor=#d5e8d4;strokeColor=#82b366;" parent="WTVdDayBTQ0MTywDv6Mj-1" vertex="1">
          <mxGeometry x="-256.25" y="330" width="180" height="30" as="geometry" />
        </mxCell>
        <mxCell id="b4PxU3jFzDO1NrmyhvWv-5" value="&lt;b&gt;ДУ4: &lt;/b&gt;Выключить регулятор нагрева" style="text;html=1;align=left;verticalAlign=middle;resizable=0;points=[];autosize=1;" parent="WTVdDayBTQ0MTywDv6Mj-1" vertex="1">
          <mxGeometry x="212" y="120" width="210" height="20" as="geometry" />
        </mxCell>
        <mxCell id="M693_9Bd0WQ16jZkxc2S-0" value="&lt;b style=&quot;font-size: 16px;&quot;&gt;Электровилка&lt;/b&gt;" style="text;html=1;align=center;verticalAlign=middle;resizable=0;points=[];autosize=1;fontSize=16;" parent="WTVdDayBTQ0MTywDv6Mj-1" vertex="1">
          <mxGeometry x="-496.25" y="461" width="130" height="20" as="geometry" />
        </mxCell>
        <mxCell id="M693_9Bd0WQ16jZkxc2S-4" style="edgeStyle=orthogonalEdgeStyle;rounded=0;orthogonalLoop=1;jettySize=auto;html=1;exitX=0.25;exitY=1;exitDx=0;exitDy=0;startArrow=none;startFill=0;endArrow=classic;endFill=1;entryX=0.25;entryY=0;entryDx=0;entryDy=0;" parent="WTVdDayBTQ0MTywDv6Mj-1" source="M693_9Bd0WQ16jZkxc2S-2" target="M693_9Bd0WQ16jZkxc2S-3" edge="1">
          <mxGeometry relative="1" as="geometry">
            <Array as="points">
              <mxPoint x="-456.25" y="571" />
              <mxPoint x="-456.25" y="611" />
            </Array>
            <mxPoint x="-446.25" y="611" as="targetPoint" />
          </mxGeometry>
        </mxCell>
        <mxCell id="M693_9Bd0WQ16jZkxc2S-7" value="ЭВ1" style="edgeLabel;html=1;align=center;verticalAlign=middle;resizable=0;points=[];" parent="M693_9Bd0WQ16jZkxc2S-4" vertex="1" connectable="0">
          <mxGeometry x="-0.214" y="9" relative="1" as="geometry">
            <mxPoint x="-26" as="offset" />
          </mxGeometry>
        </mxCell>
        <mxCell id="M693_9Bd0WQ16jZkxc2S-2" value="1. Выключена из сети" style="html=1;fillColor=#f8cecc;strokeColor=#b85450;" parent="WTVdDayBTQ0MTywDv6Mj-1" vertex="1">
          <mxGeometry x="-492.25" y="541" width="143" height="30" as="geometry" />
        </mxCell>
        <mxCell id="M693_9Bd0WQ16jZkxc2S-5" style="edgeStyle=orthogonalEdgeStyle;rounded=0;orthogonalLoop=1;jettySize=auto;html=1;exitX=0.75;exitY=0;exitDx=0;exitDy=0;entryX=0.75;entryY=1;entryDx=0;entryDy=0;startArrow=none;startFill=0;endArrow=classic;endFill=1;" parent="WTVdDayBTQ0MTywDv6Mj-1" source="M693_9Bd0WQ16jZkxc2S-3" target="M693_9Bd0WQ16jZkxc2S-2" edge="1">
          <mxGeometry relative="1" as="geometry">
            <Array as="points">
              <mxPoint x="-385.25" y="621" />
              <mxPoint x="-385.25" y="621" />
              <mxPoint x="-385.25" y="591" />
              <mxPoint x="-385.25" y="591" />
            </Array>
          </mxGeometry>
        </mxCell>
        <mxCell id="M693_9Bd0WQ16jZkxc2S-8" value="ЭВ2" style="edgeLabel;html=1;align=center;verticalAlign=middle;resizable=0;points=[];" parent="M693_9Bd0WQ16jZkxc2S-5" vertex="1" connectable="0">
          <mxGeometry x="0.0922" y="1" relative="1" as="geometry">
            <mxPoint x="19" y="-2" as="offset" />
          </mxGeometry>
        </mxCell>
        <mxCell id="M693_9Bd0WQ16jZkxc2S-3" value="2. Включена в сеть" style="html=1;fillColor=#f8cecc;strokeColor=#b85450;" parent="WTVdDayBTQ0MTywDv6Mj-1" vertex="1">
          <mxGeometry x="-492.25" y="631" width="143" height="30" as="geometry" />
        </mxCell>
        <mxCell id="M693_9Bd0WQ16jZkxc2S-9" value="&lt;b&gt;ЭВ1:&lt;/b&gt;&amp;nbsp;Питание подается" style="text;html=1;align=left;verticalAlign=middle;resizable=0;points=[];autosize=1;" parent="WTVdDayBTQ0MTywDv6Mj-1" vertex="1">
          <mxGeometry x="-376.75" y="711" width="150" height="20" as="geometry" />
        </mxCell>
        <mxCell id="M693_9Bd0WQ16jZkxc2S-10" value="&lt;b&gt;ЭВ2&lt;/b&gt;: Питание не подается" style="text;html=1;align=left;verticalAlign=middle;resizable=0;points=[];autosize=1;" parent="WTVdDayBTQ0MTywDv6Mj-1" vertex="1">
          <mxGeometry x="-375.75" y="741" width="160" height="20" as="geometry" />
        </mxCell>
        <mxCell id="M693_9Bd0WQ16jZkxc2S-11" value="&lt;table border=&quot;1&quot; width=&quot;100%&quot; style=&quot;width: 100% ; height: 100% ; border-collapse: collapse&quot;&gt;&lt;tbody&gt;&lt;tr&gt;&lt;td&gt;&lt;b&gt;№&lt;/b&gt;&lt;/td&gt;&lt;td&gt;&lt;b&gt;ЭВ1&lt;/b&gt;&lt;/td&gt;&lt;td&gt;&lt;b&gt;ЭВ2&lt;/b&gt;&lt;/td&gt;&lt;/tr&gt;&lt;tr&gt;&lt;td&gt;&lt;b&gt;1&lt;/b&gt;&lt;/td&gt;&lt;td&gt;2&lt;/td&gt;&lt;td&gt;-&lt;/td&gt;&lt;/tr&gt;&lt;tr&gt;&lt;td&gt;&lt;b&gt;2&lt;/b&gt;&lt;/td&gt;&lt;td&gt;-&lt;/td&gt;&lt;td&gt;1&lt;/td&gt;&lt;/tr&gt;&lt;/tbody&gt;&lt;/table&gt;" style="text;html=1;strokeColor=#b85450;fillColor=#f8cecc;overflow=fill;align=center;" parent="WTVdDayBTQ0MTywDv6Mj-1" vertex="1">
          <mxGeometry x="-523.75" y="703.5" width="127.5" height="67.5" as="geometry" />
        </mxCell>
        <mxCell id="0vffr-KFjJddq6IPub8_-0" value="&lt;b style=&quot;font-size: 16px;&quot;&gt;Нагреватель&lt;/b&gt;" style="text;html=1;align=center;verticalAlign=middle;resizable=0;points=[];autosize=1;fontSize=16;" parent="WTVdDayBTQ0MTywDv6Mj-1" vertex="1">
          <mxGeometry x="-13.25" y="461" width="120" height="20" as="geometry" />
        </mxCell>
        <mxCell id="0vffr-KFjJddq6IPub8_-1" style="rounded=0;orthogonalLoop=1;jettySize=auto;html=1;exitX=0.5;exitY=0;exitDx=0;exitDy=0;startArrow=classic;startFill=1;endArrow=none;endFill=0;" parent="WTVdDayBTQ0MTywDv6Mj-1" source="0vffr-KFjJddq6IPub8_-4" edge="1">
          <mxGeometry relative="1" as="geometry">
            <mxPoint x="52" y="490" as="targetPoint" />
          </mxGeometry>
        </mxCell>
        <mxCell id="0vffr-KFjJddq6IPub8_-2" style="edgeStyle=orthogonalEdgeStyle;rounded=0;orthogonalLoop=1;jettySize=auto;html=1;exitX=0.25;exitY=1;exitDx=0;exitDy=0;entryX=0.25;entryY=0;entryDx=0;entryDy=0;startArrow=none;startFill=0;endArrow=classic;endFill=1;" parent="WTVdDayBTQ0MTywDv6Mj-1" source="0vffr-KFjJddq6IPub8_-4" target="0vffr-KFjJddq6IPub8_-7" edge="1">
          <mxGeometry relative="1" as="geometry">
            <Array as="points">
              <mxPoint x="24.75" y="621" />
              <mxPoint x="24.75" y="621" />
            </Array>
          </mxGeometry>
        </mxCell>
        <mxCell id="0vffr-KFjJddq6IPub8_-3" value="Н1" style="edgeLabel;html=1;align=center;verticalAlign=middle;resizable=0;points=[];" parent="0vffr-KFjJddq6IPub8_-2" vertex="1" connectable="0">
          <mxGeometry x="-0.214" y="9" relative="1" as="geometry">
            <mxPoint x="-26" as="offset" />
          </mxGeometry>
        </mxCell>
        <mxCell id="0vffr-KFjJddq6IPub8_-4" value="1. Выключен" style="html=1;fillColor=#e1d5e7;strokeColor=#9673a6;" parent="WTVdDayBTQ0MTywDv6Mj-1" vertex="1">
          <mxGeometry x="-3.25" y="541" width="110" height="30" as="geometry" />
        </mxCell>
        <mxCell id="0vffr-KFjJddq6IPub8_-5" style="edgeStyle=orthogonalEdgeStyle;rounded=0;orthogonalLoop=1;jettySize=auto;html=1;exitX=0.75;exitY=0;exitDx=0;exitDy=0;entryX=0.75;entryY=1;entryDx=0;entryDy=0;startArrow=none;startFill=0;endArrow=classic;endFill=1;" parent="WTVdDayBTQ0MTywDv6Mj-1" source="0vffr-KFjJddq6IPub8_-7" target="0vffr-KFjJddq6IPub8_-4" edge="1">
          <mxGeometry relative="1" as="geometry">
            <Array as="points">
              <mxPoint x="79.75" y="621" />
              <mxPoint x="79.75" y="621" />
            </Array>
          </mxGeometry>
        </mxCell>
        <mxCell id="0vffr-KFjJddq6IPub8_-6" value="Н2" style="edgeLabel;html=1;align=center;verticalAlign=middle;resizable=0;points=[];" parent="0vffr-KFjJddq6IPub8_-5" vertex="1" connectable="0">
          <mxGeometry x="0.0922" y="1" relative="1" as="geometry">
            <mxPoint x="10" y="7" as="offset" />
          </mxGeometry>
        </mxCell>
        <mxCell id="0vffr-KFjJddq6IPub8_-7" value="2. Включен" style="html=1;fillColor=#e1d5e7;strokeColor=#9673a6;" parent="WTVdDayBTQ0MTywDv6Mj-1" vertex="1">
          <mxGeometry x="-3.25" y="641" width="110" height="30" as="geometry" />
        </mxCell>
        <mxCell id="0vffr-KFjJddq6IPub8_-8" value="&lt;b&gt;Н1: &lt;/b&gt;Начать нагрев" style="text;html=1;align=left;verticalAlign=middle;resizable=0;points=[];autosize=1;" parent="WTVdDayBTQ0MTywDv6Mj-1" vertex="1">
          <mxGeometry x="89" y="718.5" width="120" height="20" as="geometry" />
        </mxCell>
        <mxCell id="0vffr-KFjJddq6IPub8_-9" value="&lt;b&gt;Н2: &lt;/b&gt;Остановить нагрев" style="text;html=1;align=left;verticalAlign=middle;resizable=0;points=[];autosize=1;" parent="WTVdDayBTQ0MTywDv6Mj-1" vertex="1">
          <mxGeometry x="88.5" y="738.5" width="140" height="20" as="geometry" />
        </mxCell>
        <mxCell id="0vffr-KFjJddq6IPub8_-10" value="&lt;table border=&quot;1&quot; width=&quot;100%&quot; style=&quot;width: 100% ; height: 100% ; border-collapse: collapse&quot;&gt;&lt;tbody&gt;&lt;tr&gt;&lt;td&gt;&lt;b&gt;№&lt;/b&gt;&lt;/td&gt;&lt;td&gt;&lt;b&gt;Н1&lt;/b&gt;&lt;/td&gt;&lt;td&gt;&lt;b&gt;Н2&lt;/b&gt;&lt;/td&gt;&lt;/tr&gt;&lt;tr&gt;&lt;td&gt;&lt;b&gt;1&lt;/b&gt;&lt;/td&gt;&lt;td&gt;2&lt;/td&gt;&lt;td&gt;-&lt;/td&gt;&lt;/tr&gt;&lt;tr&gt;&lt;td&gt;&lt;b&gt;2&lt;/b&gt;&lt;/td&gt;&lt;td&gt;-&lt;/td&gt;&lt;td&gt;1&lt;/td&gt;&lt;/tr&gt;&lt;/tbody&gt;&lt;/table&gt;" style="text;html=1;strokeColor=#9673a6;fillColor=#e1d5e7;overflow=fill;align=center;" parent="WTVdDayBTQ0MTywDv6Mj-1" vertex="1">
          <mxGeometry x="-70" y="703.5" width="112.5" height="67.5" as="geometry" />
        </mxCell>
        <mxCell id="cLGsa8kHE7V3eEpcV2YQ-0" value="&lt;b style=&quot;font-size: 16px&quot;&gt;Регулятор температуры&lt;/b&gt;" style="text;html=1;align=center;verticalAlign=middle;resizable=0;points=[];autosize=1;fontSize=16;" parent="WTVdDayBTQ0MTywDv6Mj-1" vertex="1">
          <mxGeometry x="380" y="461" width="210" height="20" as="geometry" />
        </mxCell>
        <mxCell id="cLGsa8kHE7V3eEpcV2YQ-1" style="edgeStyle=orthogonalEdgeStyle;rounded=0;orthogonalLoop=1;jettySize=auto;html=1;exitX=0.5;exitY=0;exitDx=0;exitDy=0;startArrow=classic;startFill=1;endArrow=none;endFill=0;" parent="WTVdDayBTQ0MTywDv6Mj-1" source="cLGsa8kHE7V3eEpcV2YQ-4" edge="1">
          <mxGeometry relative="1" as="geometry">
            <mxPoint x="470" y="481" as="targetPoint" />
          </mxGeometry>
        </mxCell>
        <mxCell id="cLGsa8kHE7V3eEpcV2YQ-2" style="edgeStyle=orthogonalEdgeStyle;rounded=0;orthogonalLoop=1;jettySize=auto;html=1;exitX=0.25;exitY=1;exitDx=0;exitDy=0;entryX=0.25;entryY=0;entryDx=0;entryDy=0;startArrow=none;startFill=0;endArrow=classic;endFill=1;" parent="WTVdDayBTQ0MTywDv6Mj-1" source="cLGsa8kHE7V3eEpcV2YQ-4" target="cLGsa8kHE7V3eEpcV2YQ-7" edge="1">
          <mxGeometry relative="1" as="geometry">
            <Array as="points">
              <mxPoint x="443" y="601" />
              <mxPoint x="443" y="601" />
            </Array>
          </mxGeometry>
        </mxCell>
        <mxCell id="cLGsa8kHE7V3eEpcV2YQ-3" value="РТ1" style="edgeLabel;html=1;align=center;verticalAlign=middle;resizable=0;points=[];" parent="cLGsa8kHE7V3eEpcV2YQ-2" vertex="1" connectable="0">
          <mxGeometry x="-0.214" y="9" relative="1" as="geometry">
            <mxPoint x="-26" as="offset" />
          </mxGeometry>
        </mxCell>
        <mxCell id="cLGsa8kHE7V3eEpcV2YQ-4" value="1. Не установлен" style="html=1;fillColor=#dae8fc;strokeColor=#6c8ebf;" parent="WTVdDayBTQ0MTywDv6Mj-1" vertex="1">
          <mxGeometry x="415" y="521" width="110" height="30" as="geometry" />
        </mxCell>
        <mxCell id="cLGsa8kHE7V3eEpcV2YQ-5" value="РТ2" style="edgeStyle=orthogonalEdgeStyle;rounded=0;orthogonalLoop=1;jettySize=auto;html=1;exitX=0.75;exitY=0;exitDx=0;exitDy=0;entryX=0.75;entryY=1;entryDx=0;entryDy=0;startArrow=none;startFill=0;endArrow=classic;endFill=1;" parent="WTVdDayBTQ0MTywDv6Mj-1" source="cLGsa8kHE7V3eEpcV2YQ-7" target="cLGsa8kHE7V3eEpcV2YQ-4" edge="1">
          <mxGeometry relative="1" as="geometry">
            <Array as="points">
              <mxPoint x="498" y="601" />
              <mxPoint x="498" y="601" />
            </Array>
          </mxGeometry>
        </mxCell>
        <mxCell id="cLGsa8kHE7V3eEpcV2YQ-7" value="2. Установлен" style="html=1;fillColor=#dae8fc;strokeColor=#6c8ebf;" parent="WTVdDayBTQ0MTywDv6Mj-1" vertex="1">
          <mxGeometry x="415" y="621" width="110" height="30" as="geometry" />
        </mxCell>
        <mxCell id="cLGsa8kHE7V3eEpcV2YQ-8" value="&lt;b&gt;РТ1: &lt;/b&gt;Температура&amp;nbsp;выбрана" style="text;html=1;align=left;verticalAlign=middle;resizable=0;points=[];autosize=1;" parent="WTVdDayBTQ0MTywDv6Mj-1" vertex="1">
          <mxGeometry x="526.5" y="711" width="170" height="20" as="geometry" />
        </mxCell>
        <mxCell id="cLGsa8kHE7V3eEpcV2YQ-9" value="&lt;b&gt;РТ2: &lt;/b&gt;Температура сброшена" style="text;html=1;align=left;verticalAlign=middle;resizable=0;points=[];autosize=1;" parent="WTVdDayBTQ0MTywDv6Mj-1" vertex="1">
          <mxGeometry x="526.5" y="731" width="180" height="20" as="geometry" />
        </mxCell>
        <mxCell id="cLGsa8kHE7V3eEpcV2YQ-10" value="&lt;table border=&quot;1&quot; width=&quot;100%&quot; style=&quot;width: 100% ; height: 100% ; border-collapse: collapse&quot;&gt;&lt;tbody&gt;&lt;tr&gt;&lt;td&gt;&lt;b&gt;№&lt;/b&gt;&lt;/td&gt;&lt;td&gt;&lt;b&gt;РТ1&lt;/b&gt;&lt;/td&gt;&lt;td&gt;&lt;b&gt;РТ2&lt;/b&gt;&lt;/td&gt;&lt;/tr&gt;&lt;tr&gt;&lt;td&gt;&lt;b&gt;1&lt;/b&gt;&lt;/td&gt;&lt;td&gt;2&lt;/td&gt;&lt;td&gt;-&lt;/td&gt;&lt;/tr&gt;&lt;tr&gt;&lt;td&gt;&lt;b&gt;2&lt;/b&gt;&lt;/td&gt;&lt;td&gt;-&lt;/td&gt;&lt;td&gt;1&lt;/td&gt;&lt;/tr&gt;&lt;/tbody&gt;&lt;/table&gt;" style="text;html=1;strokeColor=#6c8ebf;fillColor=#dae8fc;overflow=fill;align=center;" parent="WTVdDayBTQ0MTywDv6Mj-1" vertex="1">
          <mxGeometry x="400" y="707.25" width="100.5" height="60" as="geometry" />
        </mxCell>
        <mxCell id="ed72BDYkx698F_OWr5iG-0" value="&lt;b style=&quot;font-size: 16px;&quot;&gt;Таймер&lt;/b&gt;" style="text;html=1;align=center;verticalAlign=middle;resizable=0;points=[];autosize=1;fontSize=16;" parent="WTVdDayBTQ0MTywDv6Mj-1" vertex="1">
          <mxGeometry x="-255.25" y="830" width="70" height="20" as="geometry" />
        </mxCell>
        <mxCell id="ed72BDYkx698F_OWr5iG-1" style="edgeStyle=orthogonalEdgeStyle;rounded=0;orthogonalLoop=1;jettySize=auto;html=1;exitX=0.5;exitY=0;exitDx=0;exitDy=0;startArrow=classic;startFill=1;endArrow=none;endFill=0;" parent="WTVdDayBTQ0MTywDv6Mj-1" source="ed72BDYkx698F_OWr5iG-4" edge="1">
          <mxGeometry relative="1" as="geometry">
            <mxPoint x="-220.25" y="870" as="targetPoint" />
          </mxGeometry>
        </mxCell>
        <mxCell id="ed72BDYkx698F_OWr5iG-2" style="edgeStyle=orthogonalEdgeStyle;rounded=0;orthogonalLoop=1;jettySize=auto;html=1;exitX=1;exitY=0.25;exitDx=0;exitDy=0;entryX=0;entryY=0.25;entryDx=0;entryDy=0;startArrow=none;startFill=0;endArrow=classic;endFill=1;" parent="WTVdDayBTQ0MTywDv6Mj-1" source="ed72BDYkx698F_OWr5iG-4" target="ed72BDYkx698F_OWr5iG-7" edge="1">
          <mxGeometry relative="1" as="geometry">
            <Array as="points">
              <mxPoint x="-165.25" y="929" />
              <mxPoint x="-35.25" y="929" />
            </Array>
          </mxGeometry>
        </mxCell>
        <mxCell id="ed72BDYkx698F_OWr5iG-3" value="ТМ1" style="edgeLabel;html=1;align=center;verticalAlign=middle;resizable=0;points=[];" parent="ed72BDYkx698F_OWr5iG-2" vertex="1" connectable="0">
          <mxGeometry x="-0.214" y="9" relative="1" as="geometry">
            <mxPoint x="-34" as="offset" />
          </mxGeometry>
        </mxCell>
        <mxCell id="ed72BDYkx698F_OWr5iG-4" value="1. Сброшен" style="html=1;fillColor=#ffe6cc;strokeColor=#d79b00;" parent="WTVdDayBTQ0MTywDv6Mj-1" vertex="1">
          <mxGeometry x="-275.25" y="920" width="110" height="30" as="geometry" />
        </mxCell>
        <mxCell id="ed72BDYkx698F_OWr5iG-5" style="edgeStyle=orthogonalEdgeStyle;rounded=0;orthogonalLoop=1;jettySize=auto;html=1;exitX=0;exitY=0.75;exitDx=0;exitDy=0;entryX=1;entryY=0.75;entryDx=0;entryDy=0;startArrow=none;startFill=0;endArrow=classic;endFill=1;" parent="WTVdDayBTQ0MTywDv6Mj-1" source="ed72BDYkx698F_OWr5iG-7" target="ed72BDYkx698F_OWr5iG-4" edge="1">
          <mxGeometry relative="1" as="geometry">
            <Array as="points">
              <mxPoint x="-25.25" y="943" />
              <mxPoint x="-165.25" y="943" />
            </Array>
          </mxGeometry>
        </mxCell>
        <mxCell id="ed72BDYkx698F_OWr5iG-6" value="ТМ2" style="edgeLabel;html=1;align=center;verticalAlign=middle;resizable=0;points=[];" parent="ed72BDYkx698F_OWr5iG-5" vertex="1" connectable="0">
          <mxGeometry x="0.0922" y="1" relative="1" as="geometry">
            <mxPoint x="40" y="6" as="offset" />
          </mxGeometry>
        </mxCell>
        <mxCell id="mELa6HacjAUEjYhnBwNs-0" style="edgeStyle=none;orthogonalLoop=1;jettySize=auto;html=1;exitX=0.25;exitY=0;exitDx=0;exitDy=0;fontSize=12;entryX=0.75;entryY=0;entryDx=0;entryDy=0;" parent="WTVdDayBTQ0MTywDv6Mj-1" source="ed72BDYkx698F_OWr5iG-7" target="ed72BDYkx698F_OWr5iG-7" edge="1">
          <mxGeometry relative="1" as="geometry">
            <mxPoint x="34.75" y="890" as="targetPoint" />
            <Array as="points">
              <mxPoint x="1.75" y="900" />
              <mxPoint x="57.75" y="900" />
            </Array>
          </mxGeometry>
        </mxCell>
        <mxCell id="mELa6HacjAUEjYhnBwNs-1" value="ТМ1" style="edgeLabel;html=1;align=center;verticalAlign=middle;resizable=0;points=[];fontSize=12;" parent="mELa6HacjAUEjYhnBwNs-0" vertex="1" connectable="0">
          <mxGeometry x="-0.1804" relative="1" as="geometry">
            <mxPoint x="8" y="-10" as="offset" />
          </mxGeometry>
        </mxCell>
        <mxCell id="ed72BDYkx698F_OWr5iG-7" value="2. Установлен" style="html=1;fillColor=#ffe6cc;strokeColor=#d79b00;" parent="WTVdDayBTQ0MTywDv6Mj-1" vertex="1">
          <mxGeometry x="-25.25" y="920" width="110" height="34" as="geometry" />
        </mxCell>
        <mxCell id="ed72BDYkx698F_OWr5iG-8" value="&lt;b&gt;ТМ1:&lt;/b&gt; Установить" style="text;html=1;align=left;verticalAlign=middle;resizable=0;points=[];autosize=1;" parent="WTVdDayBTQ0MTywDv6Mj-1" vertex="1">
          <mxGeometry x="202.25" y="870" width="110" height="20" as="geometry" />
        </mxCell>
        <mxCell id="ed72BDYkx698F_OWr5iG-9" value="&lt;b&gt;ТМ2:&lt;/b&gt; Сбросить" style="text;html=1;align=left;verticalAlign=middle;resizable=0;points=[];autosize=1;" parent="WTVdDayBTQ0MTywDv6Mj-1" vertex="1">
          <mxGeometry x="202.25" y="890" width="100" height="20" as="geometry" />
        </mxCell>
        <mxCell id="MZdWhIfB51AL_46SsiLZ-1" value="ТМ3" style="edgeStyle=orthogonalEdgeStyle;rounded=0;orthogonalLoop=1;jettySize=auto;html=1;exitX=0.5;exitY=1;exitDx=0;exitDy=0;entryX=1;entryY=0.5;entryDx=0;entryDy=0;startArrow=none;startFill=0;endArrow=classic;endFill=1;" parent="WTVdDayBTQ0MTywDv6Mj-1" source="ed72BDYkx698F_OWr5iG-7" target="ed72BDYkx698F_OWr5iG-12" edge="1">
          <mxGeometry x="-0.6364" y="-15" relative="1" as="geometry">
            <mxPoint as="offset" />
            <mxPoint x="-28.25" y="1095" as="sourcePoint" />
          </mxGeometry>
        </mxCell>
        <mxCell id="MZdWhIfB51AL_46SsiLZ-2" value="ТМ2" style="edgeStyle=orthogonalEdgeStyle;rounded=0;orthogonalLoop=1;jettySize=auto;html=1;startArrow=none;startFill=0;endArrow=classic;endFill=1;entryX=0.5;entryY=1;entryDx=0;entryDy=0;exitX=0.5;exitY=0;exitDx=0;exitDy=0;" parent="WTVdDayBTQ0MTywDv6Mj-1" source="ed72BDYkx698F_OWr5iG-12" target="ed72BDYkx698F_OWr5iG-4" edge="1">
          <mxGeometry x="-0.7255" y="15" relative="1" as="geometry">
            <mxPoint x="-255.25" y="1050" as="sourcePoint" />
            <mxPoint x="-225.25" y="970" as="targetPoint" />
            <Array as="points">
              <mxPoint x="-220.25" y="1078" />
            </Array>
            <mxPoint as="offset" />
          </mxGeometry>
        </mxCell>
        <mxCell id="ed72BDYkx698F_OWr5iG-12" value="3. Время истекло" style="html=1;fillColor=#ffe6cc;strokeColor=#d79b00;" parent="WTVdDayBTQ0MTywDv6Mj-1" vertex="1">
          <mxGeometry x="-280.25" y="1077.5" width="120" height="35" as="geometry" />
        </mxCell>
        <mxCell id="MZdWhIfB51AL_46SsiLZ-6" value="&lt;b&gt;ТМ3: &lt;/b&gt;Время истекло" style="text;html=1;align=left;verticalAlign=middle;resizable=0;points=[];autosize=1;" parent="WTVdDayBTQ0MTywDv6Mj-1" vertex="1">
          <mxGeometry x="202.25" y="905" width="140" height="30" as="geometry" />
        </mxCell>
        <mxCell id="hgGM4-Haj7C2qqy3yOSG-0" style="edgeStyle=orthogonalEdgeStyle;curved=0;rounded=1;sketch=0;orthogonalLoop=1;jettySize=auto;html=1;entryX=0.5;entryY=0;entryDx=0;entryDy=0;fontSize=15;" parent="WTVdDayBTQ0MTywDv6Mj-1" target="Lncw49TM1H4KjZ_BzUi1-1" edge="1">
          <mxGeometry relative="1" as="geometry">
            <mxPoint x="8.75" y="40" as="sourcePoint" />
            <mxPoint x="82.26999999999998" as="targetPoint" />
            <Array as="points">
              <mxPoint x="8.75" y="70" />
              <mxPoint x="9.75" y="70" />
            </Array>
          </mxGeometry>
        </mxCell>
        <mxCell id="mELa6HacjAUEjYhnBwNs-13" value="" style="endArrow=classic;html=1;fontSize=16;entryX=0.5;entryY=0;entryDx=0;entryDy=0;" parent="WTVdDayBTQ0MTywDv6Mj-1" target="M693_9Bd0WQ16jZkxc2S-2" edge="1">
          <mxGeometry width="50" height="50" relative="1" as="geometry">
            <mxPoint x="-420.25" y="501" as="sourcePoint" />
            <mxPoint x="-236.25" y="531" as="targetPoint" />
          </mxGeometry>
        </mxCell>
        <mxCell id="5ymAMw4t8BTA8rBGAk2p-3" style="edgeStyle=none;rounded=1;html=1;exitX=0.5;exitY=1;exitDx=0;exitDy=0;entryX=0.5;entryY=0;entryDx=0;entryDy=0;" parent="WTVdDayBTQ0MTywDv6Mj-1" source="AK8rZdtDf_WaYn-44-G0-1" target="AK8rZdtDf_WaYn-44-G0-1" edge="1">
          <mxGeometry relative="1" as="geometry">
            <mxPoint x="-385.25" y="130" as="targetPoint" />
          </mxGeometry>
        </mxCell>
        <mxCell id="AK8rZdtDf_WaYn-44-G0-1" value="4. Таймер установлен" style="html=1;fillColor=#d5e8d4;strokeColor=#82b366;" parent="WTVdDayBTQ0MTywDv6Mj-1" vertex="1">
          <mxGeometry x="-475.25" y="95" width="180" height="30" as="geometry" />
        </mxCell>
        <mxCell id="AK8rZdtDf_WaYn-44-G0-4" value="&lt;b&gt;ДУ5: &lt;/b&gt;Установить таймер" style="text;html=1;align=left;verticalAlign=middle;resizable=0;points=[];autosize=1;" parent="WTVdDayBTQ0MTywDv6Mj-1" vertex="1">
          <mxGeometry x="210.5" y="147.5" width="150" height="20" as="geometry" />
        </mxCell>
        <mxCell id="AK8rZdtDf_WaYn-44-G0-5" value="" style="endArrow=classic;html=1;exitX=0.218;exitY=0.033;exitDx=0;exitDy=0;entryX=0.75;entryY=1;entryDx=0;entryDy=0;exitPerimeter=0;edgeStyle=orthogonalEdgeStyle;" parent="WTVdDayBTQ0MTywDv6Mj-1" source="b4PxU3jFzDO1NrmyhvWv-0" target="AK8rZdtDf_WaYn-44-G0-1" edge="1">
          <mxGeometry width="50" height="50" relative="1" as="geometry">
            <mxPoint x="-341" y="250" as="sourcePoint" />
            <mxPoint x="-350.25" y="130" as="targetPoint" />
          </mxGeometry>
        </mxCell>
        <mxCell id="AK8rZdtDf_WaYn-44-G0-6" value="ДУ5" style="edgeLabel;html=1;align=center;verticalAlign=middle;resizable=0;points=[];" parent="AK8rZdtDf_WaYn-44-G0-5" vertex="1" connectable="0">
          <mxGeometry x="0.1282" y="-4" relative="1" as="geometry">
            <mxPoint x="-40" y="-32" as="offset" />
          </mxGeometry>
        </mxCell>
        <mxCell id="AK8rZdtDf_WaYn-44-G0-7" value="" style="endArrow=classic;html=1;entryX=1;entryY=0.5;entryDx=0;entryDy=0;startArrow=none;exitX=0;exitY=0;exitDx=0;exitDy=0;" parent="WTVdDayBTQ0MTywDv6Mj-1" source="AK8rZdtDf_WaYn-44-G0-1" target="ZIPZsvDPKa_kzXNjzI4_-5" edge="1">
          <mxGeometry width="50" height="50" relative="1" as="geometry">
            <mxPoint x="-196.25" y="390" as="sourcePoint" />
            <mxPoint x="193.75" y="280" as="targetPoint" />
            <Array as="points">
              <mxPoint x="-530" y="95" />
              <mxPoint x="-530" y="390" />
              <mxPoint x="193.75" y="390" />
              <mxPoint x="193.75" y="265" />
            </Array>
          </mxGeometry>
        </mxCell>
        <mxCell id="ZIPZsvDPKa_kzXNjzI4_-9" value="ДУ6" style="edgeLabel;html=1;align=center;verticalAlign=middle;resizable=0;points=[];" parent="AK8rZdtDf_WaYn-44-G0-7" vertex="1" connectable="0">
          <mxGeometry x="-0.0692" y="2" relative="1" as="geometry">
            <mxPoint x="145" y="2" as="offset" />
          </mxGeometry>
        </mxCell>
        <mxCell id="AK8rZdtDf_WaYn-44-G0-8" value="&lt;b&gt;ДУ6:&amp;nbsp;&amp;nbsp;&lt;/b&gt;Вышло время таймера" style="text;html=1;align=left;verticalAlign=middle;resizable=0;points=[];autosize=1;" parent="WTVdDayBTQ0MTywDv6Mj-1" vertex="1">
          <mxGeometry x="441.5" y="32.5" width="180" height="20" as="geometry" />
        </mxCell>
        <mxCell id="cGjGamNWeR6H6u4lDEx0-0" value="" style="endArrow=classic;html=1;exitX=0.25;exitY=1;exitDx=0;exitDy=0;entryX=0.5;entryY=1;entryDx=0;entryDy=0;edgeStyle=orthogonalEdgeStyle;" parent="WTVdDayBTQ0MTywDv6Mj-1" source="AK8rZdtDf_WaYn-44-G0-1" target="AK8rZdtDf_WaYn-44-G0-1" edge="1">
          <mxGeometry relative="1" as="geometry">
            <mxPoint x="-525.25" y="230" as="sourcePoint" />
            <mxPoint x="-430.5" y="250" as="targetPoint" />
            <Array as="points">
              <mxPoint x="-430" y="170" />
              <mxPoint x="-385" y="170" />
            </Array>
          </mxGeometry>
        </mxCell>
        <mxCell id="cGjGamNWeR6H6u4lDEx0-1" value="ДУ5" style="edgeLabel;resizable=0;html=1;align=center;verticalAlign=middle;" parent="cGjGamNWeR6H6u4lDEx0-0" connectable="0" vertex="1">
          <mxGeometry relative="1" as="geometry">
            <mxPoint x="-5" y="10" as="offset" />
          </mxGeometry>
        </mxCell>
        <mxCell id="cGjGamNWeR6H6u4lDEx0-4" value="ДУ7" style="endArrow=classic;html=1;exitX=0;exitY=1;exitDx=0;exitDy=0;entryX=0;entryY=0.5;entryDx=0;entryDy=0;" parent="WTVdDayBTQ0MTywDv6Mj-1" source="AK8rZdtDf_WaYn-44-G0-1" target="b4PxU3jFzDO1NrmyhvWv-0" edge="1">
          <mxGeometry x="-0.8087" width="50" height="50" relative="1" as="geometry">
            <mxPoint x="-421.6099999999999" y="173.32000000000005" as="sourcePoint" />
            <mxPoint x="-326.25" y="310" as="targetPoint" />
            <Array as="points">
              <mxPoint x="-496.25" y="125" />
              <mxPoint x="-496.25" y="345" />
              <mxPoint x="-421.25" y="345" />
            </Array>
            <mxPoint y="1" as="offset" />
          </mxGeometry>
        </mxCell>
        <mxCell id="cGjGamNWeR6H6u4lDEx0-5" value="&lt;b&gt;ДУ7:&amp;nbsp;&amp;nbsp;&lt;/b&gt;Выключить таймер" style="text;html=1;align=left;verticalAlign=middle;resizable=0;points=[];autosize=1;" parent="WTVdDayBTQ0MTywDv6Mj-1" vertex="1">
          <mxGeometry x="441.5" y="62.5" width="150" height="20" as="geometry" />
        </mxCell>
        <mxCell id="c9cJ79obyKt5s65ZZfGW-2" style="edgeStyle=orthogonalEdgeStyle;orthogonalLoop=1;jettySize=auto;html=1;fontSize=12;exitX=1;exitY=0.5;exitDx=0;exitDy=0;entryX=1;entryY=1;entryDx=0;entryDy=0;" parent="WTVdDayBTQ0MTywDv6Mj-1" source="b4PxU3jFzDO1NrmyhvWv-0" target="b4PxU3jFzDO1NrmyhvWv-0" edge="1">
          <mxGeometry relative="1" as="geometry">
            <mxPoint x="90" y="345" as="targetPoint" />
            <Array as="points">
              <mxPoint x="7" y="345" />
              <mxPoint x="7" y="360" />
            </Array>
            <mxPoint x="-46.25" y="390" as="sourcePoint" />
          </mxGeometry>
        </mxCell>
        <mxCell id="c9cJ79obyKt5s65ZZfGW-3" value="ДУ3" style="edgeLabel;html=1;align=center;verticalAlign=middle;resizable=0;points=[];fontSize=12;" parent="c9cJ79obyKt5s65ZZfGW-2" vertex="1" connectable="0">
          <mxGeometry x="-0.1655" y="-1" relative="1" as="geometry">
            <mxPoint x="20" y="-1" as="offset" />
          </mxGeometry>
        </mxCell>
        <mxCell id="kTg0AtPq5uq12wAMTAq6-0" style="edgeStyle=orthogonalEdgeStyle;rounded=0;orthogonalLoop=1;jettySize=auto;html=1;startArrow=none;startFill=0;endArrow=classic;endFill=1;" parent="WTVdDayBTQ0MTywDv6Mj-1" source="cLGsa8kHE7V3eEpcV2YQ-7" target="cLGsa8kHE7V3eEpcV2YQ-7" edge="1">
          <mxGeometry relative="1" as="geometry">
            <Array as="points">
              <mxPoint x="493" y="681" />
              <mxPoint x="553" y="681" />
              <mxPoint x="553" y="636" />
            </Array>
            <mxPoint x="452.5" y="561" as="sourcePoint" />
            <mxPoint x="613" y="651" as="targetPoint" />
          </mxGeometry>
        </mxCell>
        <mxCell id="kTg0AtPq5uq12wAMTAq6-1" value="РТ1" style="edgeLabel;html=1;align=center;verticalAlign=middle;resizable=0;points=[];" parent="kTg0AtPq5uq12wAMTAq6-0" vertex="1" connectable="0">
          <mxGeometry x="-0.214" y="9" relative="1" as="geometry">
            <mxPoint x="-26" as="offset" />
          </mxGeometry>
        </mxCell>
        <mxCell id="a-QHaCbRxfSxFzkbWmRm-6" value="" style="endArrow=classic;html=1;rounded=1;exitX=1;exitY=0.5;exitDx=0;exitDy=0;entryX=0.75;entryY=0;entryDx=0;entryDy=0;edgeStyle=orthogonalEdgeStyle;" parent="WTVdDayBTQ0MTywDv6Mj-1" source="Lncw49TM1H4KjZ_BzUi1-1" target="ZIPZsvDPKa_kzXNjzI4_-5" edge="1">
          <mxGeometry width="50" height="50" relative="1" as="geometry">
            <mxPoint x="135.9324999999999" y="200" as="sourcePoint" />
            <mxPoint x="133.75" y="260" as="targetPoint" />
          </mxGeometry>
        </mxCell>
        <mxCell id="a-QHaCbRxfSxFzkbWmRm-7" value="ДУ1" style="edgeLabel;html=1;align=center;verticalAlign=middle;resizable=0;points=[];" parent="a-QHaCbRxfSxFzkbWmRm-6" vertex="1" connectable="0">
          <mxGeometry x="-0.1928" y="-2" relative="1" as="geometry">
            <mxPoint as="offset" />
          </mxGeometry>
        </mxCell>
        <mxCell id="a-QHaCbRxfSxFzkbWmRm-11" value="" style="endArrow=classic;html=1;rounded=1;exitX=1;exitY=0.5;exitDx=0;exitDy=0;entryX=0;entryY=0.5;entryDx=0;entryDy=0;" parent="WTVdDayBTQ0MTywDv6Mj-1" source="AK8rZdtDf_WaYn-44-G0-1" target="Lncw49TM1H4KjZ_BzUi1-1" edge="1">
          <mxGeometry width="50" height="50" relative="1" as="geometry">
            <mxPoint x="-245.25" y="170" as="sourcePoint" />
            <mxPoint x="-199" y="170" as="targetPoint" />
            <Array as="points">
              <mxPoint x="-199.25" y="110" />
            </Array>
          </mxGeometry>
        </mxCell>
        <mxCell id="ZIPZsvDPKa_kzXNjzI4_-3" style="edgeStyle=orthogonalEdgeStyle;curved=0;rounded=1;sketch=0;orthogonalLoop=1;jettySize=auto;html=1;exitX=0.5;exitY=1;exitDx=0;exitDy=0;fontSize=15;" parent="WTVdDayBTQ0MTywDv6Mj-1" source="ZIPZsvDPKa_kzXNjzI4_-5" edge="1">
          <mxGeometry relative="1" as="geometry">
            <Array as="points">
              <mxPoint x="100" y="302" />
              <mxPoint x="-76" y="302" />
            </Array>
            <mxPoint x="64.55749999999989" y="330" as="sourcePoint" />
            <mxPoint x="-76.25" y="330" as="targetPoint" />
          </mxGeometry>
        </mxCell>
        <mxCell id="ZIPZsvDPKa_kzXNjzI4_-4" value="ДУ3" style="edgeLabel;html=1;align=center;verticalAlign=middle;resizable=0;points=[];fontSize=12;" parent="ZIPZsvDPKa_kzXNjzI4_-3" vertex="1" connectable="0">
          <mxGeometry x="-0.2841" y="1" relative="1" as="geometry">
            <mxPoint x="-11" y="-1" as="offset" />
          </mxGeometry>
        </mxCell>
        <mxCell id="ZIPZsvDPKa_kzXNjzI4_-5" value="2. В режиме ожидания" style="html=1;fillColor=#d5e8d4;strokeColor=#82b366;" parent="WTVdDayBTQ0MTywDv6Mj-1" vertex="1">
          <mxGeometry x="28.870000000000008" y="250" width="142.75" height="30" as="geometry" />
        </mxCell>
        <mxCell id="rBtwZZmTYqmp6McVs8BP-43" value="" style="shape=table;startSize=0;container=1;collapsible=0;childLayout=tableLayout;fillColor=#C7A995;" parent="WTVdDayBTQ0MTywDv6Mj-1" vertex="1">
          <mxGeometry x="183.25" y="992.5" width="178" height="120" as="geometry" />
        </mxCell>
        <mxCell id="rBtwZZmTYqmp6McVs8BP-44" value="" style="shape=tableRow;horizontal=0;startSize=0;swimlaneHead=0;swimlaneBody=0;strokeColor=#87A7FF;top=0;left=0;bottom=0;right=0;collapsible=0;dropTarget=0;fillColor=none;points=[[0,0.5],[1,0.5]];portConstraint=eastwest;" parent="rBtwZZmTYqmp6McVs8BP-43" vertex="1">
          <mxGeometry width="178" height="30" as="geometry" />
        </mxCell>
        <mxCell id="rBtwZZmTYqmp6McVs8BP-45" value="&lt;b&gt;№&lt;/b&gt;" style="shape=partialRectangle;html=1;whiteSpace=wrap;connectable=0;strokeColor=#87A7FF;overflow=hidden;fillColor=none;top=0;left=0;bottom=0;right=0;pointerEvents=1;" parent="rBtwZZmTYqmp6McVs8BP-44" vertex="1">
          <mxGeometry width="45" height="30" as="geometry">
            <mxRectangle width="45" height="30" as="alternateBounds" />
          </mxGeometry>
        </mxCell>
        <mxCell id="rBtwZZmTYqmp6McVs8BP-46" value="&lt;b&gt;ТМ1&lt;/b&gt;" style="shape=partialRectangle;html=1;whiteSpace=wrap;connectable=0;strokeColor=#87A7FF;overflow=hidden;fillColor=none;top=0;left=0;bottom=0;right=0;pointerEvents=1;" parent="rBtwZZmTYqmp6McVs8BP-44" vertex="1">
          <mxGeometry x="45" width="44" height="30" as="geometry">
            <mxRectangle width="44" height="30" as="alternateBounds" />
          </mxGeometry>
        </mxCell>
        <mxCell id="rBtwZZmTYqmp6McVs8BP-47" value="&lt;b&gt;ТМ2&lt;/b&gt;" style="shape=partialRectangle;html=1;whiteSpace=wrap;connectable=0;strokeColor=#87A7FF;overflow=hidden;fillColor=none;top=0;left=0;bottom=0;right=0;pointerEvents=1;" parent="rBtwZZmTYqmp6McVs8BP-44" vertex="1">
          <mxGeometry x="89" width="45" height="30" as="geometry">
            <mxRectangle width="45" height="30" as="alternateBounds" />
          </mxGeometry>
        </mxCell>
        <mxCell id="rBtwZZmTYqmp6McVs8BP-48" value="&lt;b&gt;ТМ3&lt;/b&gt;" style="shape=partialRectangle;html=1;whiteSpace=wrap;connectable=0;strokeColor=#87A7FF;overflow=hidden;fillColor=none;top=0;left=0;bottom=0;right=0;pointerEvents=1;" parent="rBtwZZmTYqmp6McVs8BP-44" vertex="1">
          <mxGeometry x="134" width="44" height="30" as="geometry">
            <mxRectangle width="44" height="30" as="alternateBounds" />
          </mxGeometry>
        </mxCell>
        <mxCell id="rBtwZZmTYqmp6McVs8BP-49" value="" style="shape=tableRow;horizontal=0;startSize=0;swimlaneHead=0;swimlaneBody=0;strokeColor=#87A7FF;top=0;left=0;bottom=0;right=0;collapsible=0;dropTarget=0;fillColor=none;points=[[0,0.5],[1,0.5]];portConstraint=eastwest;" parent="rBtwZZmTYqmp6McVs8BP-43" vertex="1">
          <mxGeometry y="30" width="178" height="30" as="geometry" />
        </mxCell>
        <mxCell id="rBtwZZmTYqmp6McVs8BP-50" value="&lt;b&gt;1&lt;/b&gt;" style="shape=partialRectangle;html=1;whiteSpace=wrap;connectable=0;strokeColor=#87A7FF;overflow=hidden;fillColor=none;top=0;left=0;bottom=0;right=0;pointerEvents=1;" parent="rBtwZZmTYqmp6McVs8BP-49" vertex="1">
          <mxGeometry width="45" height="30" as="geometry">
            <mxRectangle width="45" height="30" as="alternateBounds" />
          </mxGeometry>
        </mxCell>
        <mxCell id="rBtwZZmTYqmp6McVs8BP-51" value="2" style="shape=partialRectangle;html=1;whiteSpace=wrap;connectable=0;strokeColor=#87A7FF;overflow=hidden;fillColor=none;top=0;left=0;bottom=0;right=0;pointerEvents=1;" parent="rBtwZZmTYqmp6McVs8BP-49" vertex="1">
          <mxGeometry x="45" width="44" height="30" as="geometry">
            <mxRectangle width="44" height="30" as="alternateBounds" />
          </mxGeometry>
        </mxCell>
        <mxCell id="rBtwZZmTYqmp6McVs8BP-52" value="-" style="shape=partialRectangle;html=1;whiteSpace=wrap;connectable=0;strokeColor=#87A7FF;overflow=hidden;fillColor=none;top=0;left=0;bottom=0;right=0;pointerEvents=1;" parent="rBtwZZmTYqmp6McVs8BP-49" vertex="1">
          <mxGeometry x="89" width="45" height="30" as="geometry">
            <mxRectangle width="45" height="30" as="alternateBounds" />
          </mxGeometry>
        </mxCell>
        <mxCell id="rBtwZZmTYqmp6McVs8BP-53" value="-" style="shape=partialRectangle;html=1;whiteSpace=wrap;connectable=0;strokeColor=#87A7FF;overflow=hidden;fillColor=none;top=0;left=0;bottom=0;right=0;pointerEvents=1;" parent="rBtwZZmTYqmp6McVs8BP-49" vertex="1">
          <mxGeometry x="134" width="44" height="30" as="geometry">
            <mxRectangle width="44" height="30" as="alternateBounds" />
          </mxGeometry>
        </mxCell>
        <mxCell id="rBtwZZmTYqmp6McVs8BP-54" value="" style="shape=tableRow;horizontal=0;startSize=0;swimlaneHead=0;swimlaneBody=0;strokeColor=#87A7FF;top=0;left=0;bottom=0;right=0;collapsible=0;dropTarget=0;fillColor=none;points=[[0,0.5],[1,0.5]];portConstraint=eastwest;" parent="rBtwZZmTYqmp6McVs8BP-43" vertex="1">
          <mxGeometry y="60" width="178" height="30" as="geometry" />
        </mxCell>
        <mxCell id="rBtwZZmTYqmp6McVs8BP-55" value="&lt;b&gt;2&lt;/b&gt;" style="shape=partialRectangle;html=1;whiteSpace=wrap;connectable=0;strokeColor=#87A7FF;overflow=hidden;fillColor=none;top=0;left=0;bottom=0;right=0;pointerEvents=1;" parent="rBtwZZmTYqmp6McVs8BP-54" vertex="1">
          <mxGeometry width="45" height="30" as="geometry">
            <mxRectangle width="45" height="30" as="alternateBounds" />
          </mxGeometry>
        </mxCell>
        <mxCell id="rBtwZZmTYqmp6McVs8BP-56" value="2" style="shape=partialRectangle;html=1;whiteSpace=wrap;connectable=0;strokeColor=#87A7FF;overflow=hidden;fillColor=none;top=0;left=0;bottom=0;right=0;pointerEvents=1;" parent="rBtwZZmTYqmp6McVs8BP-54" vertex="1">
          <mxGeometry x="45" width="44" height="30" as="geometry">
            <mxRectangle width="44" height="30" as="alternateBounds" />
          </mxGeometry>
        </mxCell>
        <mxCell id="rBtwZZmTYqmp6McVs8BP-57" value="1" style="shape=partialRectangle;html=1;whiteSpace=wrap;connectable=0;strokeColor=#87A7FF;overflow=hidden;fillColor=none;top=0;left=0;bottom=0;right=0;pointerEvents=1;" parent="rBtwZZmTYqmp6McVs8BP-54" vertex="1">
          <mxGeometry x="89" width="45" height="30" as="geometry">
            <mxRectangle width="45" height="30" as="alternateBounds" />
          </mxGeometry>
        </mxCell>
        <mxCell id="rBtwZZmTYqmp6McVs8BP-58" value="3" style="shape=partialRectangle;html=1;whiteSpace=wrap;connectable=0;strokeColor=#87A7FF;overflow=hidden;fillColor=none;top=0;left=0;bottom=0;right=0;pointerEvents=1;" parent="rBtwZZmTYqmp6McVs8BP-54" vertex="1">
          <mxGeometry x="134" width="44" height="30" as="geometry">
            <mxRectangle width="44" height="30" as="alternateBounds" />
          </mxGeometry>
        </mxCell>
        <mxCell id="rBtwZZmTYqmp6McVs8BP-59" value="" style="shape=tableRow;horizontal=0;startSize=0;swimlaneHead=0;swimlaneBody=0;strokeColor=#87A7FF;top=0;left=0;bottom=0;right=0;collapsible=0;dropTarget=0;fillColor=none;points=[[0,0.5],[1,0.5]];portConstraint=eastwest;" parent="rBtwZZmTYqmp6McVs8BP-43" vertex="1">
          <mxGeometry y="90" width="178" height="30" as="geometry" />
        </mxCell>
        <mxCell id="rBtwZZmTYqmp6McVs8BP-60" value="&lt;b&gt;3&lt;/b&gt;" style="shape=partialRectangle;html=1;whiteSpace=wrap;connectable=0;strokeColor=#87A7FF;overflow=hidden;fillColor=none;top=0;left=0;bottom=0;right=0;pointerEvents=1;" parent="rBtwZZmTYqmp6McVs8BP-59" vertex="1">
          <mxGeometry width="45" height="30" as="geometry">
            <mxRectangle width="45" height="30" as="alternateBounds" />
          </mxGeometry>
        </mxCell>
        <mxCell id="rBtwZZmTYqmp6McVs8BP-61" value="-" style="shape=partialRectangle;html=1;whiteSpace=wrap;connectable=0;strokeColor=#87A7FF;overflow=hidden;fillColor=none;top=0;left=0;bottom=0;right=0;pointerEvents=1;" parent="rBtwZZmTYqmp6McVs8BP-59" vertex="1">
          <mxGeometry x="45" width="44" height="30" as="geometry">
            <mxRectangle width="44" height="30" as="alternateBounds" />
          </mxGeometry>
        </mxCell>
        <mxCell id="rBtwZZmTYqmp6McVs8BP-62" value="1" style="shape=partialRectangle;html=1;whiteSpace=wrap;connectable=0;strokeColor=#87A7FF;overflow=hidden;fillColor=none;top=0;left=0;bottom=0;right=0;pointerEvents=1;" parent="rBtwZZmTYqmp6McVs8BP-59" vertex="1">
          <mxGeometry x="89" width="45" height="30" as="geometry">
            <mxRectangle width="45" height="30" as="alternateBounds" />
          </mxGeometry>
        </mxCell>
        <mxCell id="rBtwZZmTYqmp6McVs8BP-63" value="-" style="shape=partialRectangle;html=1;whiteSpace=wrap;connectable=0;strokeColor=#87A7FF;overflow=hidden;fillColor=none;top=0;left=0;bottom=0;right=0;pointerEvents=1;" parent="rBtwZZmTYqmp6McVs8BP-59" vertex="1">
          <mxGeometry x="134" width="44" height="30" as="geometry">
            <mxRectangle width="44" height="30" as="alternateBounds" />
          </mxGeometry>
        </mxCell>
        <mxCell id="JITiQhQRKYb9fMIpIRqC-96" value="" style="shape=table;startSize=0;container=1;collapsible=0;childLayout=tableLayout;" parent="WTVdDayBTQ0MTywDv6Mj-1" vertex="1">
          <mxGeometry x="285.25" y="210" width="330" height="150" as="geometry" />
        </mxCell>
        <mxCell id="JITiQhQRKYb9fMIpIRqC-97" value="" style="shape=tableRow;horizontal=0;startSize=0;swimlaneHead=0;swimlaneBody=0;strokeColor=inherit;top=0;left=0;bottom=0;right=0;collapsible=0;dropTarget=0;fillColor=#B9E0A5;points=[[0,0.5],[1,0.5]];portConstraint=eastwest;" parent="JITiQhQRKYb9fMIpIRqC-96" vertex="1">
          <mxGeometry width="330" height="30" as="geometry" />
        </mxCell>
        <mxCell id="JITiQhQRKYb9fMIpIRqC-98" value="&lt;b&gt;№&lt;/b&gt;" style="shape=partialRectangle;html=1;whiteSpace=wrap;connectable=0;strokeColor=inherit;overflow=hidden;fillColor=#B9E0A5;top=0;left=0;bottom=0;right=0;pointerEvents=1;" parent="JITiQhQRKYb9fMIpIRqC-97" vertex="1">
          <mxGeometry width="41" height="30" as="geometry">
            <mxRectangle width="41" height="30" as="alternateBounds" />
          </mxGeometry>
        </mxCell>
        <mxCell id="JITiQhQRKYb9fMIpIRqC-99" value="&lt;b&gt;ДУ1&lt;/b&gt;" style="shape=partialRectangle;html=1;whiteSpace=wrap;connectable=0;strokeColor=inherit;overflow=hidden;fillColor=#B9E0A5;top=0;left=0;bottom=0;right=0;pointerEvents=1;" parent="JITiQhQRKYb9fMIpIRqC-97" vertex="1">
          <mxGeometry x="41" width="42" height="30" as="geometry">
            <mxRectangle width="42" height="30" as="alternateBounds" />
          </mxGeometry>
        </mxCell>
        <mxCell id="JITiQhQRKYb9fMIpIRqC-100" value="&lt;b&gt;ДУ2&lt;/b&gt;" style="shape=partialRectangle;html=1;whiteSpace=wrap;connectable=0;strokeColor=inherit;overflow=hidden;fillColor=#B9E0A5;top=0;left=0;bottom=0;right=0;pointerEvents=1;" parent="JITiQhQRKYb9fMIpIRqC-97" vertex="1">
          <mxGeometry x="83" width="41" height="30" as="geometry">
            <mxRectangle width="41" height="30" as="alternateBounds" />
          </mxGeometry>
        </mxCell>
        <mxCell id="JITiQhQRKYb9fMIpIRqC-101" value="&lt;b&gt;ДУ3&lt;/b&gt;" style="shape=partialRectangle;html=1;whiteSpace=wrap;connectable=0;strokeColor=inherit;overflow=hidden;fillColor=#B9E0A5;top=0;left=0;bottom=0;right=0;pointerEvents=1;" parent="JITiQhQRKYb9fMIpIRqC-97" vertex="1">
          <mxGeometry x="124" width="41" height="30" as="geometry">
            <mxRectangle width="41" height="30" as="alternateBounds" />
          </mxGeometry>
        </mxCell>
        <mxCell id="JITiQhQRKYb9fMIpIRqC-102" value="&lt;b&gt;ДУ4&lt;/b&gt;" style="shape=partialRectangle;html=1;whiteSpace=wrap;connectable=0;strokeColor=inherit;overflow=hidden;fillColor=#B9E0A5;top=0;left=0;bottom=0;right=0;pointerEvents=1;" parent="JITiQhQRKYb9fMIpIRqC-97" vertex="1">
          <mxGeometry x="165" width="41" height="30" as="geometry">
            <mxRectangle width="41" height="30" as="alternateBounds" />
          </mxGeometry>
        </mxCell>
        <mxCell id="JITiQhQRKYb9fMIpIRqC-103" value="&lt;b&gt;ДУ5&lt;/b&gt;" style="shape=partialRectangle;html=1;whiteSpace=wrap;connectable=0;strokeColor=inherit;overflow=hidden;fillColor=#B9E0A5;top=0;left=0;bottom=0;right=0;pointerEvents=1;" parent="JITiQhQRKYb9fMIpIRqC-97" vertex="1">
          <mxGeometry x="206" width="42" height="30" as="geometry">
            <mxRectangle width="42" height="30" as="alternateBounds" />
          </mxGeometry>
        </mxCell>
        <mxCell id="JITiQhQRKYb9fMIpIRqC-104" value="&lt;b&gt;ДУ6&lt;/b&gt;" style="shape=partialRectangle;html=1;whiteSpace=wrap;connectable=0;strokeColor=inherit;overflow=hidden;fillColor=#B9E0A5;top=0;left=0;bottom=0;right=0;pointerEvents=1;" parent="JITiQhQRKYb9fMIpIRqC-97" vertex="1">
          <mxGeometry x="248" width="41" height="30" as="geometry">
            <mxRectangle width="41" height="30" as="alternateBounds" />
          </mxGeometry>
        </mxCell>
        <mxCell id="JITiQhQRKYb9fMIpIRqC-105" value="&lt;b&gt;ДУ7&lt;/b&gt;" style="shape=partialRectangle;html=1;whiteSpace=wrap;connectable=0;strokeColor=inherit;overflow=hidden;fillColor=#B9E0A5;top=0;left=0;bottom=0;right=0;pointerEvents=1;" parent="JITiQhQRKYb9fMIpIRqC-97" vertex="1">
          <mxGeometry x="289" width="41" height="30" as="geometry">
            <mxRectangle width="41" height="30" as="alternateBounds" />
          </mxGeometry>
        </mxCell>
        <mxCell id="JITiQhQRKYb9fMIpIRqC-106" value="" style="shape=tableRow;horizontal=0;startSize=0;swimlaneHead=0;swimlaneBody=0;strokeColor=inherit;top=0;left=0;bottom=0;right=0;collapsible=0;dropTarget=0;fillColor=#B9E0A5;points=[[0,0.5],[1,0.5]];portConstraint=eastwest;" parent="JITiQhQRKYb9fMIpIRqC-96" vertex="1">
          <mxGeometry y="30" width="330" height="30" as="geometry" />
        </mxCell>
        <mxCell id="JITiQhQRKYb9fMIpIRqC-107" value="&lt;b&gt;1&lt;/b&gt;" style="shape=partialRectangle;html=1;whiteSpace=wrap;connectable=0;strokeColor=inherit;overflow=hidden;fillColor=#B9E0A5;top=0;left=0;bottom=0;right=0;pointerEvents=1;" parent="JITiQhQRKYb9fMIpIRqC-106" vertex="1">
          <mxGeometry width="41" height="30" as="geometry">
            <mxRectangle width="41" height="30" as="alternateBounds" />
          </mxGeometry>
        </mxCell>
        <mxCell id="JITiQhQRKYb9fMIpIRqC-108" value="2" style="shape=partialRectangle;html=1;whiteSpace=wrap;connectable=0;strokeColor=inherit;overflow=hidden;fillColor=#B9E0A5;top=0;left=0;bottom=0;right=0;pointerEvents=1;" parent="JITiQhQRKYb9fMIpIRqC-106" vertex="1">
          <mxGeometry x="41" width="42" height="30" as="geometry">
            <mxRectangle width="42" height="30" as="alternateBounds" />
          </mxGeometry>
        </mxCell>
        <mxCell id="JITiQhQRKYb9fMIpIRqC-109" value="-" style="shape=partialRectangle;html=1;whiteSpace=wrap;connectable=0;strokeColor=inherit;overflow=hidden;fillColor=#B9E0A5;top=0;left=0;bottom=0;right=0;pointerEvents=1;" parent="JITiQhQRKYb9fMIpIRqC-106" vertex="1">
          <mxGeometry x="83" width="41" height="30" as="geometry">
            <mxRectangle width="41" height="30" as="alternateBounds" />
          </mxGeometry>
        </mxCell>
        <mxCell id="JITiQhQRKYb9fMIpIRqC-110" value="-" style="shape=partialRectangle;html=1;whiteSpace=wrap;connectable=0;strokeColor=inherit;overflow=hidden;fillColor=#B9E0A5;top=0;left=0;bottom=0;right=0;pointerEvents=1;" parent="JITiQhQRKYb9fMIpIRqC-106" vertex="1">
          <mxGeometry x="124" width="41" height="30" as="geometry">
            <mxRectangle width="41" height="30" as="alternateBounds" />
          </mxGeometry>
        </mxCell>
        <mxCell id="JITiQhQRKYb9fMIpIRqC-111" value="-" style="shape=partialRectangle;html=1;whiteSpace=wrap;connectable=0;strokeColor=inherit;overflow=hidden;fillColor=#B9E0A5;top=0;left=0;bottom=0;right=0;pointerEvents=1;" parent="JITiQhQRKYb9fMIpIRqC-106" vertex="1">
          <mxGeometry x="165" width="41" height="30" as="geometry">
            <mxRectangle width="41" height="30" as="alternateBounds" />
          </mxGeometry>
        </mxCell>
        <mxCell id="JITiQhQRKYb9fMIpIRqC-112" value="-" style="shape=partialRectangle;html=1;whiteSpace=wrap;connectable=0;strokeColor=inherit;overflow=hidden;fillColor=#B9E0A5;top=0;left=0;bottom=0;right=0;pointerEvents=1;" parent="JITiQhQRKYb9fMIpIRqC-106" vertex="1">
          <mxGeometry x="206" width="42" height="30" as="geometry">
            <mxRectangle width="42" height="30" as="alternateBounds" />
          </mxGeometry>
        </mxCell>
        <mxCell id="JITiQhQRKYb9fMIpIRqC-113" value="-" style="shape=partialRectangle;html=1;whiteSpace=wrap;connectable=0;strokeColor=inherit;overflow=hidden;fillColor=#B9E0A5;top=0;left=0;bottom=0;right=0;pointerEvents=1;" parent="JITiQhQRKYb9fMIpIRqC-106" vertex="1">
          <mxGeometry x="248" width="41" height="30" as="geometry">
            <mxRectangle width="41" height="30" as="alternateBounds" />
          </mxGeometry>
        </mxCell>
        <mxCell id="JITiQhQRKYb9fMIpIRqC-114" value="-" style="shape=partialRectangle;html=1;whiteSpace=wrap;connectable=0;strokeColor=inherit;overflow=hidden;fillColor=#B9E0A5;top=0;left=0;bottom=0;right=0;pointerEvents=1;" parent="JITiQhQRKYb9fMIpIRqC-106" vertex="1">
          <mxGeometry x="289" width="41" height="30" as="geometry">
            <mxRectangle width="41" height="30" as="alternateBounds" />
          </mxGeometry>
        </mxCell>
        <mxCell id="JITiQhQRKYb9fMIpIRqC-115" value="" style="shape=tableRow;horizontal=0;startSize=0;swimlaneHead=0;swimlaneBody=0;strokeColor=inherit;top=0;left=0;bottom=0;right=0;collapsible=0;dropTarget=0;fillColor=#B9E0A5;points=[[0,0.5],[1,0.5]];portConstraint=eastwest;" parent="JITiQhQRKYb9fMIpIRqC-96" vertex="1">
          <mxGeometry y="60" width="330" height="30" as="geometry" />
        </mxCell>
        <mxCell id="JITiQhQRKYb9fMIpIRqC-116" value="&lt;b&gt;2&lt;/b&gt;" style="shape=partialRectangle;html=1;whiteSpace=wrap;connectable=0;strokeColor=inherit;overflow=hidden;fillColor=#B9E0A5;top=0;left=0;bottom=0;right=0;pointerEvents=1;" parent="JITiQhQRKYb9fMIpIRqC-115" vertex="1">
          <mxGeometry width="41" height="30" as="geometry">
            <mxRectangle width="41" height="30" as="alternateBounds" />
          </mxGeometry>
        </mxCell>
        <mxCell id="JITiQhQRKYb9fMIpIRqC-117" value="-" style="shape=partialRectangle;html=1;whiteSpace=wrap;connectable=0;strokeColor=inherit;overflow=hidden;fillColor=#B9E0A5;top=0;left=0;bottom=0;right=0;pointerEvents=1;" parent="JITiQhQRKYb9fMIpIRqC-115" vertex="1">
          <mxGeometry x="41" width="42" height="30" as="geometry">
            <mxRectangle width="42" height="30" as="alternateBounds" />
          </mxGeometry>
        </mxCell>
        <mxCell id="JITiQhQRKYb9fMIpIRqC-118" value="1" style="shape=partialRectangle;html=1;whiteSpace=wrap;connectable=0;strokeColor=inherit;overflow=hidden;fillColor=#B9E0A5;top=0;left=0;bottom=0;right=0;pointerEvents=1;" parent="JITiQhQRKYb9fMIpIRqC-115" vertex="1">
          <mxGeometry x="83" width="41" height="30" as="geometry">
            <mxRectangle width="41" height="30" as="alternateBounds" />
          </mxGeometry>
        </mxCell>
        <mxCell id="JITiQhQRKYb9fMIpIRqC-119" value="3" style="shape=partialRectangle;html=1;whiteSpace=wrap;connectable=0;strokeColor=inherit;overflow=hidden;fillColor=#B9E0A5;top=0;left=0;bottom=0;right=0;pointerEvents=1;" parent="JITiQhQRKYb9fMIpIRqC-115" vertex="1">
          <mxGeometry x="124" width="41" height="30" as="geometry">
            <mxRectangle width="41" height="30" as="alternateBounds" />
          </mxGeometry>
        </mxCell>
        <mxCell id="JITiQhQRKYb9fMIpIRqC-120" value="-" style="shape=partialRectangle;html=1;whiteSpace=wrap;connectable=0;strokeColor=inherit;overflow=hidden;fillColor=#B9E0A5;top=0;left=0;bottom=0;right=0;pointerEvents=1;" parent="JITiQhQRKYb9fMIpIRqC-115" vertex="1">
          <mxGeometry x="165" width="41" height="30" as="geometry">
            <mxRectangle width="41" height="30" as="alternateBounds" />
          </mxGeometry>
        </mxCell>
        <mxCell id="JITiQhQRKYb9fMIpIRqC-121" value="-" style="shape=partialRectangle;html=1;whiteSpace=wrap;connectable=0;strokeColor=inherit;overflow=hidden;fillColor=#B9E0A5;top=0;left=0;bottom=0;right=0;pointerEvents=1;" parent="JITiQhQRKYb9fMIpIRqC-115" vertex="1">
          <mxGeometry x="206" width="42" height="30" as="geometry">
            <mxRectangle width="42" height="30" as="alternateBounds" />
          </mxGeometry>
        </mxCell>
        <mxCell id="JITiQhQRKYb9fMIpIRqC-122" value="-" style="shape=partialRectangle;html=1;whiteSpace=wrap;connectable=0;strokeColor=inherit;overflow=hidden;fillColor=#B9E0A5;top=0;left=0;bottom=0;right=0;pointerEvents=1;" parent="JITiQhQRKYb9fMIpIRqC-115" vertex="1">
          <mxGeometry x="248" width="41" height="30" as="geometry">
            <mxRectangle width="41" height="30" as="alternateBounds" />
          </mxGeometry>
        </mxCell>
        <mxCell id="JITiQhQRKYb9fMIpIRqC-123" value="-" style="shape=partialRectangle;html=1;whiteSpace=wrap;connectable=0;strokeColor=inherit;overflow=hidden;fillColor=#B9E0A5;top=0;left=0;bottom=0;right=0;pointerEvents=1;" parent="JITiQhQRKYb9fMIpIRqC-115" vertex="1">
          <mxGeometry x="289" width="41" height="30" as="geometry">
            <mxRectangle width="41" height="30" as="alternateBounds" />
          </mxGeometry>
        </mxCell>
        <mxCell id="JITiQhQRKYb9fMIpIRqC-124" value="" style="shape=tableRow;horizontal=0;startSize=0;swimlaneHead=0;swimlaneBody=0;strokeColor=inherit;top=0;left=0;bottom=0;right=0;collapsible=0;dropTarget=0;fillColor=#B9E0A5;points=[[0,0.5],[1,0.5]];portConstraint=eastwest;" parent="JITiQhQRKYb9fMIpIRqC-96" vertex="1">
          <mxGeometry y="90" width="330" height="30" as="geometry" />
        </mxCell>
        <mxCell id="JITiQhQRKYb9fMIpIRqC-125" value="&lt;b&gt;3&lt;/b&gt;" style="shape=partialRectangle;html=1;whiteSpace=wrap;connectable=0;strokeColor=inherit;overflow=hidden;fillColor=#B9E0A5;top=0;left=0;bottom=0;right=0;pointerEvents=1;" parent="JITiQhQRKYb9fMIpIRqC-124" vertex="1">
          <mxGeometry width="41" height="30" as="geometry">
            <mxRectangle width="41" height="30" as="alternateBounds" />
          </mxGeometry>
        </mxCell>
        <mxCell id="JITiQhQRKYb9fMIpIRqC-126" value="-" style="shape=partialRectangle;html=1;whiteSpace=wrap;connectable=0;strokeColor=inherit;overflow=hidden;fillColor=#B9E0A5;top=0;left=0;bottom=0;right=0;pointerEvents=1;" parent="JITiQhQRKYb9fMIpIRqC-124" vertex="1">
          <mxGeometry x="41" width="42" height="30" as="geometry">
            <mxRectangle width="42" height="30" as="alternateBounds" />
          </mxGeometry>
        </mxCell>
        <mxCell id="JITiQhQRKYb9fMIpIRqC-127" value="1" style="shape=partialRectangle;html=1;whiteSpace=wrap;connectable=0;strokeColor=inherit;overflow=hidden;fillColor=#B9E0A5;top=0;left=0;bottom=0;right=0;pointerEvents=1;" parent="JITiQhQRKYb9fMIpIRqC-124" vertex="1">
          <mxGeometry x="83" width="41" height="30" as="geometry">
            <mxRectangle width="41" height="30" as="alternateBounds" />
          </mxGeometry>
        </mxCell>
        <mxCell id="JITiQhQRKYb9fMIpIRqC-128" value="3" style="shape=partialRectangle;html=1;whiteSpace=wrap;connectable=0;strokeColor=inherit;overflow=hidden;fillColor=#B9E0A5;top=0;left=0;bottom=0;right=0;pointerEvents=1;" parent="JITiQhQRKYb9fMIpIRqC-124" vertex="1">
          <mxGeometry x="124" width="41" height="30" as="geometry">
            <mxRectangle width="41" height="30" as="alternateBounds" />
          </mxGeometry>
        </mxCell>
        <mxCell id="JITiQhQRKYb9fMIpIRqC-129" value="2" style="shape=partialRectangle;html=1;whiteSpace=wrap;connectable=0;strokeColor=inherit;overflow=hidden;fillColor=#B9E0A5;top=0;left=0;bottom=0;right=0;pointerEvents=1;" parent="JITiQhQRKYb9fMIpIRqC-124" vertex="1">
          <mxGeometry x="165" width="41" height="30" as="geometry">
            <mxRectangle width="41" height="30" as="alternateBounds" />
          </mxGeometry>
        </mxCell>
        <mxCell id="JITiQhQRKYb9fMIpIRqC-130" value="4" style="shape=partialRectangle;html=1;whiteSpace=wrap;connectable=0;strokeColor=inherit;overflow=hidden;fillColor=#B9E0A5;top=0;left=0;bottom=0;right=0;pointerEvents=1;" parent="JITiQhQRKYb9fMIpIRqC-124" vertex="1">
          <mxGeometry x="206" width="42" height="30" as="geometry">
            <mxRectangle width="42" height="30" as="alternateBounds" />
          </mxGeometry>
        </mxCell>
        <mxCell id="JITiQhQRKYb9fMIpIRqC-131" value="-" style="shape=partialRectangle;html=1;whiteSpace=wrap;connectable=0;strokeColor=inherit;overflow=hidden;fillColor=#B9E0A5;top=0;left=0;bottom=0;right=0;pointerEvents=1;" parent="JITiQhQRKYb9fMIpIRqC-124" vertex="1">
          <mxGeometry x="248" width="41" height="30" as="geometry">
            <mxRectangle width="41" height="30" as="alternateBounds" />
          </mxGeometry>
        </mxCell>
        <mxCell id="JITiQhQRKYb9fMIpIRqC-132" value="-" style="shape=partialRectangle;html=1;whiteSpace=wrap;connectable=0;strokeColor=inherit;overflow=hidden;fillColor=#B9E0A5;top=0;left=0;bottom=0;right=0;pointerEvents=1;" parent="JITiQhQRKYb9fMIpIRqC-124" vertex="1">
          <mxGeometry x="289" width="41" height="30" as="geometry">
            <mxRectangle width="41" height="30" as="alternateBounds" />
          </mxGeometry>
        </mxCell>
        <mxCell id="JITiQhQRKYb9fMIpIRqC-133" value="" style="shape=tableRow;horizontal=0;startSize=0;swimlaneHead=0;swimlaneBody=0;strokeColor=inherit;top=0;left=0;bottom=0;right=0;collapsible=0;dropTarget=0;fillColor=#B9E0A5;points=[[0,0.5],[1,0.5]];portConstraint=eastwest;" parent="JITiQhQRKYb9fMIpIRqC-96" vertex="1">
          <mxGeometry y="120" width="330" height="30" as="geometry" />
        </mxCell>
        <mxCell id="JITiQhQRKYb9fMIpIRqC-134" value="&lt;b&gt;4&lt;/b&gt;" style="shape=partialRectangle;html=1;whiteSpace=wrap;connectable=0;strokeColor=inherit;overflow=hidden;fillColor=#B9E0A5;top=0;left=0;bottom=0;right=0;pointerEvents=1;" parent="JITiQhQRKYb9fMIpIRqC-133" vertex="1">
          <mxGeometry width="41" height="30" as="geometry">
            <mxRectangle width="41" height="30" as="alternateBounds" />
          </mxGeometry>
        </mxCell>
        <mxCell id="JITiQhQRKYb9fMIpIRqC-135" value="-" style="shape=partialRectangle;html=1;whiteSpace=wrap;connectable=0;strokeColor=inherit;overflow=hidden;fillColor=#B9E0A5;top=0;left=0;bottom=0;right=0;pointerEvents=1;" parent="JITiQhQRKYb9fMIpIRqC-133" vertex="1">
          <mxGeometry x="41" width="42" height="30" as="geometry">
            <mxRectangle width="42" height="30" as="alternateBounds" />
          </mxGeometry>
        </mxCell>
        <mxCell id="JITiQhQRKYb9fMIpIRqC-136" value="1" style="shape=partialRectangle;html=1;whiteSpace=wrap;connectable=0;strokeColor=inherit;overflow=hidden;fillColor=#B9E0A5;top=0;left=0;bottom=0;right=0;pointerEvents=1;" parent="JITiQhQRKYb9fMIpIRqC-133" vertex="1">
          <mxGeometry x="83" width="41" height="30" as="geometry">
            <mxRectangle width="41" height="30" as="alternateBounds" />
          </mxGeometry>
        </mxCell>
        <mxCell id="JITiQhQRKYb9fMIpIRqC-137" value="-" style="shape=partialRectangle;html=1;whiteSpace=wrap;connectable=0;strokeColor=inherit;overflow=hidden;fillColor=#B9E0A5;top=0;left=0;bottom=0;right=0;pointerEvents=1;" parent="JITiQhQRKYb9fMIpIRqC-133" vertex="1">
          <mxGeometry x="124" width="41" height="30" as="geometry">
            <mxRectangle width="41" height="30" as="alternateBounds" />
          </mxGeometry>
        </mxCell>
        <mxCell id="JITiQhQRKYb9fMIpIRqC-138" value="-" style="shape=partialRectangle;html=1;whiteSpace=wrap;connectable=0;strokeColor=inherit;overflow=hidden;fillColor=#B9E0A5;top=0;left=0;bottom=0;right=0;pointerEvents=1;" parent="JITiQhQRKYb9fMIpIRqC-133" vertex="1">
          <mxGeometry x="165" width="41" height="30" as="geometry">
            <mxRectangle width="41" height="30" as="alternateBounds" />
          </mxGeometry>
        </mxCell>
        <mxCell id="JITiQhQRKYb9fMIpIRqC-139" value="4" style="shape=partialRectangle;html=1;whiteSpace=wrap;connectable=0;strokeColor=inherit;overflow=hidden;fillColor=#B9E0A5;top=0;left=0;bottom=0;right=0;pointerEvents=1;" parent="JITiQhQRKYb9fMIpIRqC-133" vertex="1">
          <mxGeometry x="206" width="42" height="30" as="geometry">
            <mxRectangle width="42" height="30" as="alternateBounds" />
          </mxGeometry>
        </mxCell>
        <mxCell id="JITiQhQRKYb9fMIpIRqC-140" value="2" style="shape=partialRectangle;html=1;whiteSpace=wrap;connectable=0;strokeColor=inherit;overflow=hidden;fillColor=#B9E0A5;top=0;left=0;bottom=0;right=0;pointerEvents=1;" parent="JITiQhQRKYb9fMIpIRqC-133" vertex="1">
          <mxGeometry x="248" width="41" height="30" as="geometry">
            <mxRectangle width="41" height="30" as="alternateBounds" />
          </mxGeometry>
        </mxCell>
        <mxCell id="JITiQhQRKYb9fMIpIRqC-141" value="3" style="shape=partialRectangle;html=1;whiteSpace=wrap;connectable=0;strokeColor=inherit;overflow=hidden;fillColor=#B9E0A5;top=0;left=0;bottom=0;right=0;pointerEvents=1;" parent="JITiQhQRKYb9fMIpIRqC-133" vertex="1">
          <mxGeometry x="289" width="41" height="30" as="geometry">
            <mxRectangle width="41" height="30" as="alternateBounds" />
          </mxGeometry>
        </mxCell>
      </root>
    </mxGraphModel>
  </diagram>
  <diagram id="fZX0k5Z-JAgOxxHAtFgj" name="Духовка МВО">
    <mxGraphModel dx="2501" dy="689" grid="1" gridSize="10" guides="1" tooltips="1" connect="1" arrows="1" fold="1" page="1" pageScale="1" pageWidth="827" pageHeight="1169" math="0" shadow="0">
      <root>
        <mxCell id="ZtCL0BUTYMkzUZmzJPe1-0" />
        <mxCell id="ZtCL0BUTYMkzUZmzJPe1-1" parent="ZtCL0BUTYMkzUZmzJPe1-0" />
        <mxCell id="FDaU0_tdcrjwNUrVFfj--0" value="Духовка" style="html=1;fillColor=#d5e8d4;strokeColor=#82b366;rounded=1;" parent="ZtCL0BUTYMkzUZmzJPe1-1" vertex="1">
          <mxGeometry x="264" y="40" width="180" height="70" as="geometry" />
        </mxCell>
        <mxCell id="dTazUNeXnFLfylA4RK1N-0" value="" style="endArrow=classic;html=1;strokeColor=#82b366;fillColor=#d5e8d4;entryX=0;entryY=0.25;entryDx=0;entryDy=0;exitX=0.25;exitY=0;exitDx=0;exitDy=0;edgeStyle=orthogonalEdgeStyle;" parent="ZtCL0BUTYMkzUZmzJPe1-1" source="QI0sY6AA9ZuPjZBbpsIm-0" target="FDaU0_tdcrjwNUrVFfj--0" edge="1">
          <mxGeometry width="50" height="50" relative="1" as="geometry">
            <mxPoint x="320" y="120" as="sourcePoint" />
            <mxPoint x="330" y="200" as="targetPoint" />
          </mxGeometry>
        </mxCell>
        <mxCell id="FHRJ2_6aWgzh1B3Q1UUK-0" value="ДУ3" style="edgeLabel;html=1;align=center;verticalAlign=middle;resizable=0;points=[];" parent="dTazUNeXnFLfylA4RK1N-0" vertex="1" connectable="0">
          <mxGeometry x="0.2289" y="-2" relative="1" as="geometry">
            <mxPoint x="-21" y="1" as="offset" />
          </mxGeometry>
        </mxCell>
        <mxCell id="7UbMLccTA900D5xy008P-0" value="ТМ2" style="endArrow=classic;html=1;strokeColor=#F19C99;exitX=0.5;exitY=0;exitDx=0;exitDy=0;fillColor=#d5e8d4;entryX=0.75;entryY=1;entryDx=0;entryDy=0;edgeStyle=orthogonalEdgeStyle;" parent="ZtCL0BUTYMkzUZmzJPe1-1" source="zs1vf5pN8YAHoKJEDTTu-0" target="XddZGGgJlvfqH__SkQ1b-0" edge="1">
          <mxGeometry width="50" height="50" relative="1" as="geometry">
            <mxPoint x="429" y="95" as="sourcePoint" />
            <mxPoint x="410" y="340" as="targetPoint" />
          </mxGeometry>
        </mxCell>
        <mxCell id="lOtHEzxMUnhdJrcgqjS6-0" value="Электровилка" style="html=1;fillColor=#fad9d5;strokeColor=#ae4132;rounded=1;" parent="ZtCL0BUTYMkzUZmzJPe1-1" vertex="1">
          <mxGeometry x="530" y="235" width="180" height="70" as="geometry" />
        </mxCell>
        <mxCell id="PIcN0_Bfmx6O03bE8m9V-0" value="РТ1" style="endArrow=classic;html=1;fillColor=#d5e8d4;strokeColor=#87A7FF;exitX=0;exitY=0;exitDx=0;exitDy=0;entryX=0.25;entryY=1;entryDx=0;entryDy=0;edgeStyle=orthogonalEdgeStyle;" parent="ZtCL0BUTYMkzUZmzJPe1-1" source="zs1vf5pN8YAHoKJEDTTu-0" target="QI0sY6AA9ZuPjZBbpsIm-0" edge="1">
          <mxGeometry width="50" height="50" relative="1" as="geometry">
            <mxPoint x="454" y="80" as="sourcePoint" />
            <mxPoint x="250" y="380" as="targetPoint" />
          </mxGeometry>
        </mxCell>
        <mxCell id="PIcN0_Bfmx6O03bE8m9V-2" value="РТ2" style="endArrow=classic;html=1;fillColor=#d5e8d4;strokeColor=#87A7FF;exitX=0.25;exitY=0;exitDx=0;exitDy=0;entryX=0.75;entryY=1;entryDx=0;entryDy=0;edgeStyle=orthogonalEdgeStyle;" parent="ZtCL0BUTYMkzUZmzJPe1-1" source="zs1vf5pN8YAHoKJEDTTu-0" target="QI0sY6AA9ZuPjZBbpsIm-0" edge="1">
          <mxGeometry width="50" height="50" relative="1" as="geometry">
            <mxPoint x="600.0000000000002" y="240" as="sourcePoint" />
            <mxPoint x="300" y="390" as="targetPoint" />
            <Array as="points">
              <mxPoint x="274" y="350" />
              <mxPoint x="135" y="350" />
            </Array>
          </mxGeometry>
        </mxCell>
        <mxCell id="QI0sY6AA9ZuPjZBbpsIm-0" value="Регулятор температуры" style="html=1;fillColor=#b1ddf0;strokeColor=#10739e;rounded=1;" parent="ZtCL0BUTYMkzUZmzJPe1-1" vertex="1">
          <mxGeometry y="235" width="180" height="70" as="geometry" />
        </mxCell>
        <mxCell id="XddZGGgJlvfqH__SkQ1b-0" value="Таймер" style="html=1;fillColor=#fad7ac;strokeColor=#b46504;rounded=1;" parent="ZtCL0BUTYMkzUZmzJPe1-1" vertex="1">
          <mxGeometry x="264" y="240" width="180" height="60" as="geometry" />
        </mxCell>
        <mxCell id="N0bkLboyIuqzSvCP8aRc-0" value="Нагреватель" style="html=1;fillColor=#d0cee2;strokeColor=#56517e;rounded=1;" parent="ZtCL0BUTYMkzUZmzJPe1-1" vertex="1">
          <mxGeometry x="-250" y="240" width="180" height="60" as="geometry" />
        </mxCell>
        <mxCell id="Pw2QzQYOQH4l_rgcw5hD-0" value="Н1" style="endArrow=classic;html=1;fillColor=#d0cee2;strokeColor=#56517e;entryX=0.75;entryY=0;entryDx=0;entryDy=0;exitX=0.25;exitY=0;exitDx=0;exitDy=0;edgeStyle=orthogonalEdgeStyle;" parent="ZtCL0BUTYMkzUZmzJPe1-1" source="FDaU0_tdcrjwNUrVFfj--0" target="N0bkLboyIuqzSvCP8aRc-0" edge="1">
          <mxGeometry width="50" height="50" relative="1" as="geometry">
            <mxPoint x="-30" y="190" as="sourcePoint" />
            <mxPoint x="140" y="270" as="targetPoint" />
          </mxGeometry>
        </mxCell>
        <mxCell id="Pw2QzQYOQH4l_rgcw5hD-1" value="Н2" style="endArrow=classic;html=1;fillColor=#d0cee2;strokeColor=#56517e;entryX=0.25;entryY=0;entryDx=0;entryDy=0;exitX=0.75;exitY=0;exitDx=0;exitDy=0;edgeStyle=orthogonalEdgeStyle;" parent="ZtCL0BUTYMkzUZmzJPe1-1" source="FDaU0_tdcrjwNUrVFfj--0" target="N0bkLboyIuqzSvCP8aRc-0" edge="1">
          <mxGeometry width="50" height="50" relative="1" as="geometry">
            <mxPoint x="-90" y="170" as="sourcePoint" />
            <mxPoint x="95" y="340" as="targetPoint" />
            <Array as="points">
              <mxPoint x="399" y="10" />
              <mxPoint x="-205" y="10" />
            </Array>
          </mxGeometry>
        </mxCell>
        <mxCell id="o1FM360Y8BghdWVFBHHG-0" value="" style="endArrow=classic;html=1;fillColor=#d5e8d4;strokeColor=#82b366;exitX=0.5;exitY=0;exitDx=0;exitDy=0;entryX=0.5;entryY=1;entryDx=0;entryDy=0;" parent="ZtCL0BUTYMkzUZmzJPe1-1" source="XddZGGgJlvfqH__SkQ1b-0" edge="1" target="FDaU0_tdcrjwNUrVFfj--0">
          <mxGeometry x="-0.3846" y="-96" width="50" height="50" relative="1" as="geometry">
            <mxPoint x="409" y="270" as="sourcePoint" />
            <mxPoint x="370" y="180" as="targetPoint" />
            <mxPoint as="offset" />
          </mxGeometry>
        </mxCell>
        <mxCell id="jdXJtvql2fLinmU46nx0-0" value="ДУ6" style="edgeLabel;html=1;align=center;verticalAlign=middle;resizable=0;points=[];" vertex="1" connectable="0" parent="o1FM360Y8BghdWVFBHHG-0">
          <mxGeometry x="-0.0308" y="3" relative="1" as="geometry">
            <mxPoint as="offset" />
          </mxGeometry>
        </mxCell>
        <mxCell id="zs1vf5pN8YAHoKJEDTTu-0" value="Пользователь" style="html=1;fillColor=#fff2cc;strokeColor=#d6b656;" parent="ZtCL0BUTYMkzUZmzJPe1-1" vertex="1">
          <mxGeometry x="194" y="490" width="320" height="70" as="geometry" />
        </mxCell>
        <mxCell id="zs1vf5pN8YAHoKJEDTTu-2" value="ЭВ2" style="endArrow=classic;html=1;strokeColor=#701D4C;exitX=1;exitY=0;exitDx=0;exitDy=0;fillColor=#d5e8d4;entryX=0.75;entryY=1;entryDx=0;entryDy=0;edgeStyle=orthogonalEdgeStyle;" parent="ZtCL0BUTYMkzUZmzJPe1-1" source="zs1vf5pN8YAHoKJEDTTu-0" edge="1" target="lOtHEzxMUnhdJrcgqjS6-0">
          <mxGeometry x="-0.0568" y="-1" width="50" height="50" relative="1" as="geometry">
            <mxPoint x="444" y="110" as="sourcePoint" />
            <mxPoint x="560" y="400" as="targetPoint" />
            <mxPoint as="offset" />
          </mxGeometry>
        </mxCell>
        <mxCell id="tykVSYv2u-5fv19jTBsm-0" value="ДУ1" style="endArrow=classic;html=1;fillColor=#60a917;strokeColor=#2D7600;entryX=1;entryY=0.25;entryDx=0;entryDy=0;exitX=0;exitY=0.25;exitDx=0;exitDy=0;edgeStyle=orthogonalEdgeStyle;" parent="ZtCL0BUTYMkzUZmzJPe1-1" source="lOtHEzxMUnhdJrcgqjS6-0" target="FDaU0_tdcrjwNUrVFfj--0" edge="1">
          <mxGeometry width="50" height="50" relative="1" as="geometry">
            <mxPoint x="454" y="247.5" as="sourcePoint" />
            <mxPoint x="600" y="247.5" as="targetPoint" />
            <Array as="points">
              <mxPoint x="510" y="253" />
              <mxPoint x="510" y="58" />
              <mxPoint x="490" y="58" />
            </Array>
          </mxGeometry>
        </mxCell>
        <mxCell id="tykVSYv2u-5fv19jTBsm-2" value="ДУ2" style="endArrow=classic;html=1;fillColor=#60a917;strokeColor=#2D7600;entryX=1;entryY=0.75;entryDx=0;entryDy=0;exitX=0;exitY=0.75;exitDx=0;exitDy=0;edgeStyle=orthogonalEdgeStyle;" parent="ZtCL0BUTYMkzUZmzJPe1-1" source="lOtHEzxMUnhdJrcgqjS6-0" target="FDaU0_tdcrjwNUrVFfj--0" edge="1">
          <mxGeometry width="50" height="50" relative="1" as="geometry">
            <mxPoint x="600" y="275" as="sourcePoint" />
            <mxPoint x="454" y="275" as="targetPoint" />
            <Array as="points">
              <mxPoint x="480" y="288" />
              <mxPoint x="480" y="93" />
            </Array>
          </mxGeometry>
        </mxCell>
        <mxCell id="TEl5FK-T6Czv2neIgjBI-0" value="ДУ5" style="endArrow=classic;html=1;fillColor=#d5e8d4;strokeColor=#82b366;exitX=0.25;exitY=0;exitDx=0;exitDy=0;entryX=0.25;entryY=1;entryDx=0;entryDy=0;" parent="ZtCL0BUTYMkzUZmzJPe1-1" source="XddZGGgJlvfqH__SkQ1b-0" target="FDaU0_tdcrjwNUrVFfj--0" edge="1">
          <mxGeometry x="-0.0165" width="50" height="50" relative="1" as="geometry">
            <mxPoint x="364" y="390" as="sourcePoint" />
            <mxPoint x="264" y="300" as="targetPoint" />
            <mxPoint as="offset" />
          </mxGeometry>
        </mxCell>
        <mxCell id="vwIw_A6lIMi4PU4nYUx2-0" value="ТМ1" style="endArrow=classic;html=1;fillColor=#d5e8d4;strokeColor=#F19C99;exitX=0.5;exitY=0;exitDx=0;exitDy=0;entryX=0.25;entryY=1;entryDx=0;entryDy=0;edgeStyle=orthogonalEdgeStyle;" parent="ZtCL0BUTYMkzUZmzJPe1-1" source="zs1vf5pN8YAHoKJEDTTu-0" edge="1" target="XddZGGgJlvfqH__SkQ1b-0">
          <mxGeometry width="50" height="50" relative="1" as="geometry">
            <mxPoint x="347.6199999999999" y="388.02" as="sourcePoint" />
            <mxPoint x="360" y="380" as="targetPoint" />
          </mxGeometry>
        </mxCell>
        <mxCell id="FHRJ2_6aWgzh1B3Q1UUK-1" value="ЭВ1" style="endArrow=classic;html=1;strokeColor=#701D4C;exitX=0.75;exitY=0;exitDx=0;exitDy=0;fillColor=#701D4C;entryX=0.25;entryY=1;entryDx=0;entryDy=0;edgeStyle=orthogonalEdgeStyle;" parent="ZtCL0BUTYMkzUZmzJPe1-1" source="zs1vf5pN8YAHoKJEDTTu-0" target="lOtHEzxMUnhdJrcgqjS6-0" edge="1">
          <mxGeometry x="0.0012" width="50" height="50" relative="1" as="geometry">
            <mxPoint x="400.48" y="110.69999999999999" as="sourcePoint" />
            <mxPoint x="470" y="360" as="targetPoint" />
            <Array as="points">
              <mxPoint x="434" y="360" />
              <mxPoint x="575" y="360" />
            </Array>
            <mxPoint y="1" as="offset" />
          </mxGeometry>
        </mxCell>
        <mxCell id="_sIlBbkUrGheV33M-dhM-0" value="" style="endArrow=classic;html=1;strokeColor=#82b366;fillColor=#d5e8d4;entryX=0;entryY=0.5;entryDx=0;entryDy=0;exitX=0.5;exitY=0;exitDx=0;exitDy=0;edgeStyle=orthogonalEdgeStyle;" edge="1" parent="ZtCL0BUTYMkzUZmzJPe1-1" source="QI0sY6AA9ZuPjZBbpsIm-0" target="FDaU0_tdcrjwNUrVFfj--0">
          <mxGeometry width="50" height="50" relative="1" as="geometry">
            <mxPoint x="180" y="285" as="sourcePoint" />
            <mxPoint x="264" y="130" as="targetPoint" />
            <Array as="points">
              <mxPoint x="90" y="75" />
            </Array>
          </mxGeometry>
        </mxCell>
        <mxCell id="_sIlBbkUrGheV33M-dhM-1" value="ДУ4" style="edgeLabel;html=1;align=center;verticalAlign=middle;resizable=0;points=[];" vertex="1" connectable="0" parent="_sIlBbkUrGheV33M-dhM-0">
          <mxGeometry x="0.2289" y="-2" relative="1" as="geometry">
            <mxPoint x="-2" y="-2" as="offset" />
          </mxGeometry>
        </mxCell>
        <mxCell id="jdXJtvql2fLinmU46nx0-1" value="" style="endArrow=classic;html=1;fillColor=#d5e8d4;strokeColor=#82b366;exitX=0.75;exitY=0;exitDx=0;exitDy=0;entryX=0.75;entryY=1;entryDx=0;entryDy=0;" edge="1" parent="ZtCL0BUTYMkzUZmzJPe1-1" source="XddZGGgJlvfqH__SkQ1b-0" target="FDaU0_tdcrjwNUrVFfj--0">
          <mxGeometry x="-0.0769" y="-41" width="50" height="50" relative="1" as="geometry">
            <mxPoint x="364" y="250" as="sourcePoint" />
            <mxPoint x="364" y="120" as="targetPoint" />
            <mxPoint as="offset" />
          </mxGeometry>
        </mxCell>
        <mxCell id="jdXJtvql2fLinmU46nx0-2" value="ДУ7" style="edgeLabel;html=1;align=center;verticalAlign=middle;resizable=0;points=[];" vertex="1" connectable="0" parent="jdXJtvql2fLinmU46nx0-1">
          <mxGeometry x="-0.0308" y="3" relative="1" as="geometry">
            <mxPoint x="4" y="3" as="offset" />
          </mxGeometry>
        </mxCell>
        <mxCell id="E_UG_r4y5fuc5klmCRiM-0" value="ТМ2" style="endArrow=classic;html=1;strokeColor=#F19C99;exitX=1;exitY=1;exitDx=0;exitDy=0;fillColor=#d5e8d4;entryX=1;entryY=0;entryDx=0;entryDy=0;" edge="1" parent="ZtCL0BUTYMkzUZmzJPe1-1" source="FDaU0_tdcrjwNUrVFfj--0" target="XddZGGgJlvfqH__SkQ1b-0">
          <mxGeometry width="50" height="50" relative="1" as="geometry">
            <mxPoint x="364" y="500" as="sourcePoint" />
            <mxPoint x="409" y="310" as="targetPoint" />
          </mxGeometry>
        </mxCell>
        <mxCell id="EIDS5-e5IVVh-euWd_mQ-0" value="РТ2" style="endArrow=classic;html=1;fillColor=#d5e8d4;strokeColor=#87A7FF;exitX=0;exitY=0.75;exitDx=0;exitDy=0;edgeStyle=orthogonalEdgeStyle;entryX=0.75;entryY=0;entryDx=0;entryDy=0;" edge="1" parent="ZtCL0BUTYMkzUZmzJPe1-1" source="FDaU0_tdcrjwNUrVFfj--0" target="QI0sY6AA9ZuPjZBbpsIm-0">
          <mxGeometry x="0.3002" width="50" height="50" relative="1" as="geometry">
            <mxPoint x="284" y="500" as="sourcePoint" />
            <mxPoint x="120" y="180" as="targetPoint" />
            <Array as="points">
              <mxPoint x="135" y="93" />
            </Array>
            <mxPoint as="offset" />
          </mxGeometry>
        </mxCell>
      </root>
    </mxGraphModel>
  </diagram>
  <diagram id="xDvaSDNP2RH4p0NBtuDw" name="Духовка КУ">
    <mxGraphModel dx="1674" dy="1789" grid="1" gridSize="10" guides="1" tooltips="1" connect="1" arrows="1" fold="1" page="1" pageScale="1" pageWidth="850" pageHeight="1100" math="0" shadow="0">
      <root>
        <mxCell id="Zj6yhEbdwNJzNqMhZD0T-0" />
        <mxCell id="Zj6yhEbdwNJzNqMhZD0T-1" parent="Zj6yhEbdwNJzNqMhZD0T-0" />
        <mxCell id="YsPpnDb5eAmeHwA8trw8-2" value="&lt;b&gt;&lt;font style=&quot;font-size: 15px&quot;&gt;ДУХОВКА&lt;/font&gt;&lt;/b&gt;" style="text;html=1;align=center;verticalAlign=middle;resizable=0;points=[];autosize=1;strokeColor=none;fillColor=none;" parent="Zj6yhEbdwNJzNqMhZD0T-1" vertex="1">
          <mxGeometry x="130" y="-1040" width="90" height="20" as="geometry" />
        </mxCell>
        <mxCell id="YsPpnDb5eAmeHwA8trw8-3" value="&lt;b&gt;&lt;font style=&quot;font-size: 15px&quot;&gt;ЭЛЕКТРОВИЛКА&lt;/font&gt;&lt;/b&gt;" style="text;html=1;align=center;verticalAlign=middle;resizable=0;points=[];autosize=1;strokeColor=none;fillColor=none;" parent="Zj6yhEbdwNJzNqMhZD0T-1" vertex="1">
          <mxGeometry x="335" y="-1040" width="140" height="20" as="geometry" />
        </mxCell>
        <mxCell id="5s1jGnAewSO6Z_hkwcT8-0" value="&lt;span style=&quot;font-size: 15px&quot;&gt;&lt;b&gt;ТАЙМЕР&lt;/b&gt;&lt;/span&gt;" style="text;html=1;align=center;verticalAlign=middle;resizable=0;points=[];autosize=1;strokeColor=none;fillColor=none;" parent="Zj6yhEbdwNJzNqMhZD0T-1" vertex="1">
          <mxGeometry x="565" y="-1040" width="80" height="20" as="geometry" />
        </mxCell>
        <mxCell id="5HA6AfLDzGLRwsns0B0q-0" value="&lt;span style=&quot;font-size: 15px&quot;&gt;&lt;b&gt;НАГРЕВАТЕЛЬ&lt;/b&gt;&lt;/span&gt;" style="text;html=1;align=center;verticalAlign=middle;resizable=0;points=[];autosize=1;strokeColor=none;fillColor=none;" parent="Zj6yhEbdwNJzNqMhZD0T-1" vertex="1">
          <mxGeometry x="1010" y="-1040" width="130" height="20" as="geometry" />
        </mxCell>
        <mxCell id="eAfTMvHta68YsgANUnKj-0" value="&lt;span style=&quot;font-size: 15px&quot;&gt;&lt;b&gt;РЕГУЛЯТОР ТЕМПЕРАТУРЫ&lt;/b&gt;&lt;/span&gt;" style="text;html=1;align=center;verticalAlign=middle;resizable=0;points=[];autosize=1;strokeColor=none;fillColor=none;" parent="Zj6yhEbdwNJzNqMhZD0T-1" vertex="1">
          <mxGeometry x="730" y="-1040" width="220" height="20" as="geometry" />
        </mxCell>
        <mxCell id="-fWvLwIFoZsGVdPvu5W6-1" value="Выключена из сети" style="html=1;fillColor=#fad9d5;strokeColor=#ae4132;" parent="Zj6yhEbdwNJzNqMhZD0T-1" vertex="1">
          <mxGeometry x="325" y="-1000" width="150" height="30" as="geometry" />
        </mxCell>
        <mxCell id="3ijWkTZ4UENiAqEJU-tE-0" value="Сброшен" style="html=1;fillColor=#ffcc99;strokeColor=#36393d;" parent="Zj6yhEbdwNJzNqMhZD0T-1" vertex="1">
          <mxGeometry x="535" y="-1000" width="140" height="30" as="geometry" />
        </mxCell>
        <mxCell id="CSFTJBS7xgZftHJxtxEu-0" value="Не установлен" style="html=1;fillColor=#b1ddf0;strokeColor=#10739e;" parent="Zj6yhEbdwNJzNqMhZD0T-1" vertex="1">
          <mxGeometry x="770" y="-1000" width="140" height="30" as="geometry" />
        </mxCell>
        <mxCell id="CSFTJBS7xgZftHJxtxEu-1" value="Выключен" style="html=1;fillColor=#d0cee2;strokeColor=#56517e;" parent="Zj6yhEbdwNJzNqMhZD0T-1" vertex="1">
          <mxGeometry x="1010" y="-1000" width="140" height="30" as="geometry" />
        </mxCell>
        <mxCell id="RkNyc78MIVzCPhyzS551-0" value="В режиме ожидания" style="html=1;fillColor=#d5e8d4;strokeColor=#82b366;" parent="Zj6yhEbdwNJzNqMhZD0T-1" vertex="1">
          <mxGeometry x="100" y="-800" width="150" height="30" as="geometry" />
        </mxCell>
        <mxCell id="aaBObSr2pyQe1QrZGvs_-0" value="Таймер установлен" style="html=1;fillColor=#d5e8d4;strokeColor=#82b366;" parent="Zj6yhEbdwNJzNqMhZD0T-1" vertex="1">
          <mxGeometry x="100" y="-500" width="150" height="30" as="geometry" />
        </mxCell>
        <mxCell id="aaBObSr2pyQe1QrZGvs_-3" value="" style="endArrow=classic;html=1;fontSize=15;strokeColor=#23445d;exitX=0.5;exitY=1;exitDx=0;exitDy=0;fillColor=#bac8d3;entryX=0.5;entryY=0;entryDx=0;entryDy=0;" parent="Zj6yhEbdwNJzNqMhZD0T-1" source="kgkz8eoWl7viGdsZdCau-0" target="aaBObSr2pyQe1QrZGvs_-0" edge="1">
          <mxGeometry width="50" height="50" relative="1" as="geometry">
            <mxPoint x="185" y="-470" as="sourcePoint" />
            <mxPoint x="175" y="-600" as="targetPoint" />
          </mxGeometry>
        </mxCell>
        <mxCell id="_M4chHHt4FsStTuZnUq3-0" value="В режиме ожидания" style="html=1;fillColor=#d5e8d4;strokeColor=#82b366;" parent="Zj6yhEbdwNJzNqMhZD0T-1" vertex="1">
          <mxGeometry x="100" y="-390" width="150" height="30" as="geometry" />
        </mxCell>
        <mxCell id="_M4chHHt4FsStTuZnUq3-1" value="" style="endArrow=classic;html=1;fontSize=15;strokeColor=#23445d;fillColor=#bac8d3;entryX=0.5;entryY=0;entryDx=0;entryDy=0;exitX=0.5;exitY=1;exitDx=0;exitDy=0;" parent="Zj6yhEbdwNJzNqMhZD0T-1" source="aaBObSr2pyQe1QrZGvs_-0" target="_M4chHHt4FsStTuZnUq3-0" edge="1">
          <mxGeometry width="50" height="50" relative="1" as="geometry">
            <mxPoint x="175" y="-220" as="sourcePoint" />
            <mxPoint x="185" y="-264" as="targetPoint" />
          </mxGeometry>
        </mxCell>
        <mxCell id="_M4chHHt4FsStTuZnUq3-2" value="Выключена" style="html=1;fillColor=#d5e8d4;strokeColor=#82b366;" parent="Zj6yhEbdwNJzNqMhZD0T-1" vertex="1">
          <mxGeometry x="100" y="-175" width="150" height="30" as="geometry" />
        </mxCell>
        <mxCell id="_M4chHHt4FsStTuZnUq3-3" value="" style="endArrow=classic;html=1;fontSize=15;strokeColor=#23445d;fillColor=#bac8d3;entryX=0.5;entryY=0;entryDx=0;entryDy=0;exitX=0.5;exitY=1;exitDx=0;exitDy=0;" parent="Zj6yhEbdwNJzNqMhZD0T-1" source="_M4chHHt4FsStTuZnUq3-0" target="_M4chHHt4FsStTuZnUq3-2" edge="1">
          <mxGeometry width="50" height="50" relative="1" as="geometry">
            <mxPoint x="185" y="-234" as="sourcePoint" />
            <mxPoint x="175" y="-290" as="targetPoint" />
          </mxGeometry>
        </mxCell>
        <mxCell id="_M4chHHt4FsStTuZnUq3-8" value="" style="endArrow=classic;html=1;fontSize=15;exitX=0.5;exitY=1;exitDx=0;exitDy=0;entryX=0.5;entryY=0;entryDx=0;entryDy=0;" parent="Zj6yhEbdwNJzNqMhZD0T-1" source="E8N4iQsdscOyhsd-9uqy-2" target="_M4chHHt4FsStTuZnUq3-9" edge="1">
          <mxGeometry width="50" height="50" relative="1" as="geometry">
            <mxPoint x="400" y="-700" as="sourcePoint" />
            <mxPoint x="410" y="-200" as="targetPoint" />
          </mxGeometry>
        </mxCell>
        <mxCell id="_M4chHHt4FsStTuZnUq3-9" value="Выключена из сети" style="html=1;fillColor=#fad9d5;strokeColor=#ae4132;" parent="Zj6yhEbdwNJzNqMhZD0T-1" vertex="1">
          <mxGeometry x="325" y="-230" width="150" height="30" as="geometry" />
        </mxCell>
        <mxCell id="GI7FwbqvyvxUwaIdjQAG-2" value="" style="edgeStyle=none;html=1;" parent="Zj6yhEbdwNJzNqMhZD0T-1" source="_M4chHHt4FsStTuZnUq3-11" target="_M4chHHt4FsStTuZnUq3-12" edge="1">
          <mxGeometry relative="1" as="geometry" />
        </mxCell>
        <mxCell id="_M4chHHt4FsStTuZnUq3-11" value="Установлен" style="html=1;fillColor=#fad7ac;strokeColor=#b46504;" parent="Zj6yhEbdwNJzNqMhZD0T-1" vertex="1">
          <mxGeometry x="535" y="-560" width="140" height="30" as="geometry" />
        </mxCell>
        <mxCell id="_M4chHHt4FsStTuZnUq3-12" value="Отсчет времени" style="html=1;fillColor=#fad7ac;strokeColor=#b46504;" parent="Zj6yhEbdwNJzNqMhZD0T-1" vertex="1">
          <mxGeometry x="535" y="-490" width="140" height="30" as="geometry" />
        </mxCell>
        <mxCell id="_M4chHHt4FsStTuZnUq3-14" value="" style="endArrow=classic;html=1;fontSize=15;strokeColor=#23445d;exitX=0.5;exitY=1;exitDx=0;exitDy=0;entryX=0.5;entryY=0;entryDx=0;entryDy=0;fillColor=#bac8d3;" parent="Zj6yhEbdwNJzNqMhZD0T-1" source="_M4chHHt4FsStTuZnUq3-11" target="_M4chHHt4FsStTuZnUq3-12" edge="1">
          <mxGeometry width="50" height="50" relative="1" as="geometry">
            <mxPoint x="615" y="-640" as="sourcePoint" />
            <mxPoint x="615" y="-293" as="targetPoint" />
          </mxGeometry>
        </mxCell>
        <mxCell id="_M4chHHt4FsStTuZnUq3-15" value="" style="endArrow=classic;html=1;fontSize=15;strokeColor=#23445d;exitX=0.5;exitY=1;exitDx=0;exitDy=0;fillColor=#bac8d3;entryX=0.5;entryY=0;entryDx=0;entryDy=0;" parent="Zj6yhEbdwNJzNqMhZD0T-1" source="_M4chHHt4FsStTuZnUq3-12" target="_M4chHHt4FsStTuZnUq3-17" edge="1">
          <mxGeometry width="50" height="50" relative="1" as="geometry">
            <mxPoint x="615" y="-263" as="sourcePoint" />
            <mxPoint x="605" y="-170" as="targetPoint" />
          </mxGeometry>
        </mxCell>
        <mxCell id="_M4chHHt4FsStTuZnUq3-17" value="Время истекло" style="html=1;fillColor=#fad7ac;strokeColor=#b46504;" parent="Zj6yhEbdwNJzNqMhZD0T-1" vertex="1">
          <mxGeometry x="535" y="-425" width="140" height="30" as="geometry" />
        </mxCell>
        <mxCell id="_M4chHHt4FsStTuZnUq3-18" value="" style="endArrow=classic;html=1;fontSize=15;strokeColor=#005700;exitX=0;exitY=0.5;exitDx=0;exitDy=0;fillColor=#008a00;" parent="Zj6yhEbdwNJzNqMhZD0T-1" source="_M4chHHt4FsStTuZnUq3-17" edge="1">
          <mxGeometry width="50" height="50" relative="1" as="geometry">
            <mxPoint x="650" y="-60" as="sourcePoint" />
            <mxPoint x="180" y="-410" as="targetPoint" />
          </mxGeometry>
        </mxCell>
        <mxCell id="_M4chHHt4FsStTuZnUq3-21" value="Установлен" style="html=1;fillColor=#b1ddf0;strokeColor=#10739e;" parent="Zj6yhEbdwNJzNqMhZD0T-1" vertex="1">
          <mxGeometry x="770" y="-740" width="140" height="30" as="geometry" />
        </mxCell>
        <mxCell id="ROv1LuAiazIBWhrGLdTG-1" value="" style="endArrow=classic;html=1;fontSize=15;strokeColor=#23445d;fillColor=#bac8d3;entryX=0.5;entryY=0;entryDx=0;entryDy=0;exitX=0.5;exitY=1;exitDx=0;exitDy=0;" parent="Zj6yhEbdwNJzNqMhZD0T-1" source="_M4chHHt4FsStTuZnUq3-21" target="7C1l2Xv-H3bEY7cuFIju-3" edge="1">
          <mxGeometry width="50" height="50" relative="1" as="geometry">
            <mxPoint x="820" y="-400" as="sourcePoint" />
            <mxPoint x="840" y="-160" as="targetPoint" />
          </mxGeometry>
        </mxCell>
        <mxCell id="7C1l2Xv-H3bEY7cuFIju-0" value="Включен" style="html=1;fillColor=#d0cee2;strokeColor=#56517e;" parent="Zj6yhEbdwNJzNqMhZD0T-1" vertex="1">
          <mxGeometry x="1010" y="-560" width="140" height="30" as="geometry" />
        </mxCell>
        <mxCell id="7C1l2Xv-H3bEY7cuFIju-1" value="" style="endArrow=classic;html=1;fontSize=15;strokeColor=#9673a6;exitX=1;exitY=0.5;exitDx=0;exitDy=0;fillColor=#e1d5e7;" parent="Zj6yhEbdwNJzNqMhZD0T-1" source="kgkz8eoWl7viGdsZdCau-0" edge="1">
          <mxGeometry width="50" height="50" relative="1" as="geometry">
            <mxPoint x="970" y="-320" as="sourcePoint" />
            <mxPoint x="1080" y="-685" as="targetPoint" />
          </mxGeometry>
        </mxCell>
        <mxCell id="7C1l2Xv-H3bEY7cuFIju-3" value="Не установлен" style="html=1;fillColor=#b1ddf0;strokeColor=#10739e;" parent="Zj6yhEbdwNJzNqMhZD0T-1" vertex="1">
          <mxGeometry x="770" y="-110" width="140" height="30" as="geometry" />
        </mxCell>
        <mxCell id="7C1l2Xv-H3bEY7cuFIju-4" value="" style="endArrow=classic;html=1;fontSize=15;strokeColor=#006EAF;fillColor=#1ba1e2;exitX=1;exitY=0.5;exitDx=0;exitDy=0;" parent="Zj6yhEbdwNJzNqMhZD0T-1" source="_M4chHHt4FsStTuZnUq3-0" edge="1">
          <mxGeometry width="50" height="50" relative="1" as="geometry">
            <mxPoint x="290" y="-130" as="sourcePoint" />
            <mxPoint x="840" y="-375" as="targetPoint" />
          </mxGeometry>
        </mxCell>
        <mxCell id="7C1l2Xv-H3bEY7cuFIju-6" value="Выключен" style="html=1;fillColor=#d0cee2;strokeColor=#56517e;" parent="Zj6yhEbdwNJzNqMhZD0T-1" vertex="1">
          <mxGeometry x="1010" y="-110" width="140" height="30" as="geometry" />
        </mxCell>
        <mxCell id="7C1l2Xv-H3bEY7cuFIju-8" value="" style="endArrow=classic;html=1;fontSize=15;strokeColor=#23445d;exitX=0.5;exitY=1;exitDx=0;exitDy=0;entryX=0.5;entryY=0;entryDx=0;entryDy=0;fillColor=#bac8d3;" parent="Zj6yhEbdwNJzNqMhZD0T-1" source="7C1l2Xv-H3bEY7cuFIju-0" target="7C1l2Xv-H3bEY7cuFIju-6" edge="1">
          <mxGeometry width="50" height="50" relative="1" as="geometry">
            <mxPoint x="1110" y="-230" as="sourcePoint" />
            <mxPoint x="1160" y="-280" as="targetPoint" />
          </mxGeometry>
        </mxCell>
        <mxCell id="7C1l2Xv-H3bEY7cuFIju-9" value="" style="endArrow=classic;html=1;fontSize=15;strokeColor=#9673a6;exitX=1;exitY=0.75;exitDx=0;exitDy=0;fillColor=#e1d5e7;" parent="Zj6yhEbdwNJzNqMhZD0T-1" source="_M4chHHt4FsStTuZnUq3-0" edge="1">
          <mxGeometry width="50" height="50" relative="1" as="geometry">
            <mxPoint x="1040" y="50" as="sourcePoint" />
            <mxPoint x="1080" y="-370" as="targetPoint" />
            <Array as="points" />
          </mxGeometry>
        </mxCell>
        <mxCell id="TWjczzs-O8njxm2eDzZU-0" value="Сброшен" style="html=1;fillColor=#fad7ac;strokeColor=#b46504;" parent="Zj6yhEbdwNJzNqMhZD0T-1" vertex="1">
          <mxGeometry x="535" y="-110" width="140" height="30" as="geometry" />
        </mxCell>
        <mxCell id="TWjczzs-O8njxm2eDzZU-1" value="" style="endArrow=classic;html=1;fontSize=15;strokeColor=#23445d;exitX=0.5;exitY=1;exitDx=0;exitDy=0;entryX=0.5;entryY=0;entryDx=0;entryDy=0;fillColor=#bac8d3;" parent="Zj6yhEbdwNJzNqMhZD0T-1" source="_M4chHHt4FsStTuZnUq3-17" target="TWjczzs-O8njxm2eDzZU-0" edge="1">
          <mxGeometry width="50" height="50" relative="1" as="geometry">
            <mxPoint x="685" y="-156" as="sourcePoint" />
            <mxPoint x="815" y="-140" as="targetPoint" />
            <Array as="points" />
          </mxGeometry>
        </mxCell>
        <mxCell id="B55kDetTeWWXbYuLlCa1-0" value="Выключена" style="html=1;fillColor=#d5e8d4;strokeColor=#82b366;" parent="Zj6yhEbdwNJzNqMhZD0T-1" vertex="1">
          <mxGeometry x="100" y="-1000" width="150" height="30" as="geometry" />
        </mxCell>
        <mxCell id="B55kDetTeWWXbYuLlCa1-2" value="" style="endArrow=classic;html=1;entryX=0.5;entryY=0;entryDx=0;entryDy=0;exitX=0.5;exitY=1;exitDx=0;exitDy=0;" parent="Zj6yhEbdwNJzNqMhZD0T-1" source="B55kDetTeWWXbYuLlCa1-0" target="RkNyc78MIVzCPhyzS551-0" edge="1">
          <mxGeometry width="50" height="50" relative="1" as="geometry">
            <mxPoint x="175" y="-870" as="sourcePoint" />
            <mxPoint x="175" y="-800" as="targetPoint" />
          </mxGeometry>
        </mxCell>
        <mxCell id="B55kDetTeWWXbYuLlCa1-5" value="" style="endArrow=classic;html=1;fillColor=#60a917;strokeColor=#2D7600;exitX=0;exitY=0.5;exitDx=0;exitDy=0;" parent="Zj6yhEbdwNJzNqMhZD0T-1" source="E8N4iQsdscOyhsd-9uqy-2" edge="1">
          <mxGeometry width="50" height="50" relative="1" as="geometry">
            <mxPoint x="325" y="-665" as="sourcePoint" />
            <mxPoint x="180" y="-825" as="targetPoint" />
          </mxGeometry>
        </mxCell>
        <mxCell id="B55kDetTeWWXbYuLlCa1-7" value="" style="endArrow=classic;html=1;exitX=0.5;exitY=1;exitDx=0;exitDy=0;entryX=0.5;entryY=0;entryDx=0;entryDy=0;" parent="Zj6yhEbdwNJzNqMhZD0T-1" source="CSFTJBS7xgZftHJxtxEu-0" target="_M4chHHt4FsStTuZnUq3-21" edge="1">
          <mxGeometry width="50" height="50" relative="1" as="geometry">
            <mxPoint x="703" y="-770" as="sourcePoint" />
            <mxPoint x="840" y="-720" as="targetPoint" />
          </mxGeometry>
        </mxCell>
        <mxCell id="B55kDetTeWWXbYuLlCa1-9" value="" style="endArrow=classic;html=1;exitX=0.5;exitY=1;exitDx=0;exitDy=0;entryX=0.5;entryY=0;entryDx=0;entryDy=0;" parent="Zj6yhEbdwNJzNqMhZD0T-1" source="CSFTJBS7xgZftHJxtxEu-1" target="7C1l2Xv-H3bEY7cuFIju-0" edge="1">
          <mxGeometry width="50" height="50" relative="1" as="geometry">
            <mxPoint x="1243" y="-780" as="sourcePoint" />
            <mxPoint x="1080" y="-720" as="targetPoint" />
          </mxGeometry>
        </mxCell>
        <mxCell id="B55kDetTeWWXbYuLlCa1-11" value="" style="endArrow=classic;html=1;exitX=0.5;exitY=1;exitDx=0;exitDy=0;entryX=0.5;entryY=0;entryDx=0;entryDy=0;" parent="Zj6yhEbdwNJzNqMhZD0T-1" source="3ijWkTZ4UENiAqEJU-tE-0" target="_M4chHHt4FsStTuZnUq3-11" edge="1">
          <mxGeometry width="50" height="50" relative="1" as="geometry">
            <mxPoint x="633" y="-750" as="sourcePoint" />
            <mxPoint x="605" y="-720" as="targetPoint" />
          </mxGeometry>
        </mxCell>
        <mxCell id="B55kDetTeWWXbYuLlCa1-13" value="" style="edgeStyle=none;html=1;" parent="Zj6yhEbdwNJzNqMhZD0T-1" edge="1">
          <mxGeometry relative="1" as="geometry">
            <mxPoint x="400" y="-780" as="sourcePoint" />
            <mxPoint x="400" y="-780" as="targetPoint" />
          </mxGeometry>
        </mxCell>
        <mxCell id="B55kDetTeWWXbYuLlCa1-18" value="" style="endArrow=classic;html=1;exitX=0.5;exitY=1;exitDx=0;exitDy=0;entryX=0.5;entryY=0;entryDx=0;entryDy=0;" parent="Zj6yhEbdwNJzNqMhZD0T-1" source="-fWvLwIFoZsGVdPvu5W6-1" target="E8N4iQsdscOyhsd-9uqy-2" edge="1">
          <mxGeometry width="50" height="50" relative="1" as="geometry">
            <mxPoint x="473" y="-730" as="sourcePoint" />
            <mxPoint x="400" y="-860" as="targetPoint" />
          </mxGeometry>
        </mxCell>
        <mxCell id="E8N4iQsdscOyhsd-9uqy-2" value="Включена в сеть" style="html=1;fillColor=#fad9d5;strokeColor=#ae4132;" parent="Zj6yhEbdwNJzNqMhZD0T-1" vertex="1">
          <mxGeometry x="325" y="-840" width="150" height="30" as="geometry" />
        </mxCell>
        <mxCell id="E8N4iQsdscOyhsd-9uqy-4" value="" style="endArrow=classic;html=1;fillColor=#60a917;strokeColor=#2D7600;exitX=0;exitY=0.5;exitDx=0;exitDy=0;" parent="Zj6yhEbdwNJzNqMhZD0T-1" source="_M4chHHt4FsStTuZnUq3-9" edge="1">
          <mxGeometry width="50" height="50" relative="1" as="geometry">
            <mxPoint x="323" y="38" as="sourcePoint" />
            <mxPoint x="180" y="-215" as="targetPoint" />
          </mxGeometry>
        </mxCell>
        <mxCell id="E8N4iQsdscOyhsd-9uqy-8" value="" style="endArrow=classic;html=1;exitX=1;exitY=0.5;exitDx=0;exitDy=0;fillColor=#f0a30a;strokeColor=#BD7000;" parent="Zj6yhEbdwNJzNqMhZD0T-1" edge="1">
          <mxGeometry width="50" height="50" relative="1" as="geometry">
            <mxPoint x="250" y="-175" as="sourcePoint" />
            <mxPoint x="600" y="-175" as="targetPoint" />
          </mxGeometry>
        </mxCell>
        <mxCell id="nPYoR4pMxXM1pNV0a-HK-0" value="" style="endArrow=classic;html=1;rounded=0;exitX=0;exitY=0.5;exitDx=0;exitDy=0;fillColor=#60a917;strokeColor=#2D7600;" parent="Zj6yhEbdwNJzNqMhZD0T-1" source="_M4chHHt4FsStTuZnUq3-11" edge="1">
          <mxGeometry width="50" height="50" relative="1" as="geometry">
            <mxPoint x="293" y="-280" as="sourcePoint" />
            <mxPoint x="180" y="-545" as="targetPoint" />
          </mxGeometry>
        </mxCell>
        <mxCell id="kgkz8eoWl7viGdsZdCau-0" value="В процессе приготовления" style="html=1;fillColor=#d5e8d4;strokeColor=#82b366;" parent="Zj6yhEbdwNJzNqMhZD0T-1" vertex="1">
          <mxGeometry x="90" y="-700" width="170" height="30" as="geometry" />
        </mxCell>
        <mxCell id="GtOfm0f-vGJbimukQ0Tg-0" value="" style="endArrow=classic;html=1;rounded=0;exitX=0;exitY=0.5;exitDx=0;exitDy=0;fillColor=#60a917;strokeColor=#2D7600;" parent="Zj6yhEbdwNJzNqMhZD0T-1" source="_M4chHHt4FsStTuZnUq3-21" edge="1">
          <mxGeometry width="50" height="50" relative="1" as="geometry">
            <mxPoint x="544.9999999999998" y="-315" as="sourcePoint" />
            <mxPoint x="180" y="-725" as="targetPoint" />
          </mxGeometry>
        </mxCell>
        <mxCell id="HulXrSX0l0mbnS0E0wT1-4" value="" style="endArrow=classic;html=1;exitX=0.5;exitY=1;exitDx=0;exitDy=0;entryX=0.5;entryY=0;entryDx=0;entryDy=0;" parent="Zj6yhEbdwNJzNqMhZD0T-1" source="RkNyc78MIVzCPhyzS551-0" target="kgkz8eoWl7viGdsZdCau-0" edge="1">
          <mxGeometry width="50" height="50" relative="1" as="geometry">
            <mxPoint x="50" y="-700" as="sourcePoint" />
            <mxPoint x="100" y="-750" as="targetPoint" />
          </mxGeometry>
        </mxCell>
        <mxCell id="cEcx8w-p-omSE8reOv07-0" value="" style="endArrow=classic;html=1;fontSize=15;strokeColor=#006EAF;fillColor=#1ba1e2;exitX=1;exitY=0.5;exitDx=0;exitDy=0;" edge="1" parent="Zj6yhEbdwNJzNqMhZD0T-1">
          <mxGeometry width="50" height="50" relative="1" as="geometry">
            <mxPoint x="250" y="-160" as="sourcePoint" />
            <mxPoint x="840" y="-160" as="targetPoint" />
          </mxGeometry>
        </mxCell>
        <mxCell id="cEcx8w-p-omSE8reOv07-1" value="" style="endArrow=classic;html=1;fontSize=15;strokeColor=#9673a6;exitX=1;exitY=0.75;exitDx=0;exitDy=0;fillColor=#e1d5e7;" edge="1" parent="Zj6yhEbdwNJzNqMhZD0T-1">
          <mxGeometry width="50" height="50" relative="1" as="geometry">
            <mxPoint x="250" y="-145" as="sourcePoint" />
            <mxPoint x="1080" y="-148" as="targetPoint" />
            <Array as="points" />
          </mxGeometry>
        </mxCell>
      </root>
    </mxGraphModel>
  </diagram>
  <diagram id="IZBmKjR_Iy8mEDrNJ0xb" name="Духовка ДПДД">
    <mxGraphModel dx="847" dy="-1649" grid="1" gridSize="10" guides="1" tooltips="1" connect="1" arrows="1" fold="1" page="1" pageScale="1" pageWidth="827" pageHeight="1169" math="0" shadow="0">
      <root>
        <mxCell id="GJAqLuctV7d4QnNTkr7x-0" />
        <mxCell id="GJAqLuctV7d4QnNTkr7x-1" parent="GJAqLuctV7d4QnNTkr7x-0" />
        <mxCell id="ObuP1BRHUFvKbwU8Xd-l-0" value="Событие ДУ2" style="edgeStyle=orthogonalEdgeStyle;rounded=0;jumpStyle=arc;jumpSize=24;orthogonalLoop=1;jettySize=auto;html=1;startArrow=none;startFill=0;endArrow=classic;endFill=1;" parent="GJAqLuctV7d4QnNTkr7x-1" target="ObuP1BRHUFvKbwU8Xd-l-2" edge="1">
          <mxGeometry x="0.0162" y="16" relative="1" as="geometry">
            <mxPoint x="1106" y="2406" as="sourcePoint" />
            <mxPoint as="offset" />
          </mxGeometry>
        </mxCell>
        <mxCell id="ObuP1BRHUFvKbwU8Xd-l-1" style="edgeStyle=orthogonalEdgeStyle;rounded=0;jumpStyle=arc;jumpSize=24;orthogonalLoop=1;jettySize=auto;html=1;startArrow=none;startFill=0;endArrow=classic;endFill=1;dashed=1;" parent="GJAqLuctV7d4QnNTkr7x-1" source="ObuP1BRHUFvKbwU8Xd-l-2" target="ObuP1BRHUFvKbwU8Xd-l-4" edge="1">
          <mxGeometry relative="1" as="geometry" />
        </mxCell>
        <mxCell id="ObuP1BRHUFvKbwU8Xd-l-2" value="Получить событие" style="ellipse;whiteSpace=wrap;html=1;" parent="GJAqLuctV7d4QnNTkr7x-1" vertex="1">
          <mxGeometry x="1204.5" y="2371" width="140" height="70" as="geometry" />
        </mxCell>
        <mxCell id="ObuP1BRHUFvKbwU8Xd-l-3" value="Состояние != &quot;Выключена&quot;" style="edgeStyle=none;rounded=0;jumpStyle=arc;jumpSize=24;orthogonalLoop=1;jettySize=auto;html=1;dashed=1;startArrow=none;startFill=0;endArrow=classic;endFill=1;" parent="GJAqLuctV7d4QnNTkr7x-1" source="ObuP1BRHUFvKbwU8Xd-l-4" target="ObuP1BRHUFvKbwU8Xd-l-11" edge="1">
          <mxGeometry x="-0.2222" y="2" relative="1" as="geometry">
            <mxPoint as="offset" />
          </mxGeometry>
        </mxCell>
        <mxCell id="ObuP1BRHUFvKbwU8Xd-l-4" value="Проверить текущее состояние" style="ellipse;whiteSpace=wrap;html=1;" parent="GJAqLuctV7d4QnNTkr7x-1" vertex="1">
          <mxGeometry x="1424.5" y="2371" width="140" height="70" as="geometry" />
        </mxCell>
        <mxCell id="ObuP1BRHUFvKbwU8Xd-l-5" value="Состояние" style="rounded=0;jumpStyle=arc;jumpSize=24;orthogonalLoop=1;jettySize=auto;html=1;startArrow=none;startFill=0;endArrow=classic;endFill=1;" parent="GJAqLuctV7d4QnNTkr7x-1" source="ObuP1BRHUFvKbwU8Xd-l-6" target="ObuP1BRHUFvKbwU8Xd-l-8" edge="1">
          <mxGeometry relative="1" as="geometry" />
        </mxCell>
        <mxCell id="ObuP1BRHUFvKbwU8Xd-l-6" value="Духовка" style="shape=partialRectangle;whiteSpace=wrap;html=1;left=0;right=0;fillColor=none;" parent="GJAqLuctV7d4QnNTkr7x-1" vertex="1">
          <mxGeometry x="1719.5" y="2501" width="120" height="60" as="geometry" />
        </mxCell>
        <mxCell id="ObuP1BRHUFvKbwU8Xd-l-7" value="Состояние" style="rounded=0;jumpStyle=arc;jumpSize=24;orthogonalLoop=1;jettySize=auto;html=1;startArrow=none;startFill=0;endArrow=classic;endFill=1;" parent="GJAqLuctV7d4QnNTkr7x-1" source="ObuP1BRHUFvKbwU8Xd-l-8" target="ObuP1BRHUFvKbwU8Xd-l-4" edge="1">
          <mxGeometry relative="1" as="geometry" />
        </mxCell>
        <mxCell id="ObuP1BRHUFvKbwU8Xd-l-8" value="Считать состояние" style="ellipse;whiteSpace=wrap;html=1;" parent="GJAqLuctV7d4QnNTkr7x-1" vertex="1">
          <mxGeometry x="1709.5" y="2371" width="140" height="70" as="geometry" />
        </mxCell>
        <mxCell id="ObuP1BRHUFvKbwU8Xd-l-9" value="Состояние" style="edgeStyle=none;rounded=0;jumpStyle=arc;jumpSize=24;orthogonalLoop=1;jettySize=auto;html=1;startArrow=none;startFill=0;endArrow=classic;endFill=1;" parent="GJAqLuctV7d4QnNTkr7x-1" source="ObuP1BRHUFvKbwU8Xd-l-11" target="ObuP1BRHUFvKbwU8Xd-l-13" edge="1">
          <mxGeometry relative="1" as="geometry" />
        </mxCell>
        <mxCell id="ObuP1BRHUFvKbwU8Xd-l-10" value="" style="edgeStyle=none;rounded=0;jumpStyle=arc;jumpSize=24;orthogonalLoop=1;jettySize=auto;html=1;startArrow=none;startFill=0;endArrow=classic;endFill=1;dashed=1;" parent="GJAqLuctV7d4QnNTkr7x-1" source="ObuP1BRHUFvKbwU8Xd-l-11" target="ObuP1BRHUFvKbwU8Xd-l-15" edge="1">
          <mxGeometry relative="1" as="geometry" />
        </mxCell>
        <mxCell id="ObuP1BRHUFvKbwU8Xd-l-11" value="Изменить состояние на &quot;Выключена&quot;" style="ellipse;whiteSpace=wrap;html=1;" parent="GJAqLuctV7d4QnNTkr7x-1" vertex="1">
          <mxGeometry x="1424.5" y="2621" width="140" height="70" as="geometry" />
        </mxCell>
        <mxCell id="ObuP1BRHUFvKbwU8Xd-l-12" value="Состояние" style="edgeStyle=none;rounded=0;jumpStyle=arc;jumpSize=24;orthogonalLoop=1;jettySize=auto;html=1;startArrow=none;startFill=0;endArrow=classic;endFill=1;" parent="GJAqLuctV7d4QnNTkr7x-1" source="ObuP1BRHUFvKbwU8Xd-l-13" target="ObuP1BRHUFvKbwU8Xd-l-6" edge="1">
          <mxGeometry relative="1" as="geometry" />
        </mxCell>
        <mxCell id="ObuP1BRHUFvKbwU8Xd-l-13" value="Записать состояние" style="ellipse;whiteSpace=wrap;html=1;" parent="GJAqLuctV7d4QnNTkr7x-1" vertex="1">
          <mxGeometry x="1709.5" y="2621" width="140" height="70" as="geometry" />
        </mxCell>
        <mxCell id="ObuP1BRHUFvKbwU8Xd-l-14" style="edgeStyle=none;rounded=0;jumpStyle=arc;jumpSize=24;orthogonalLoop=1;jettySize=auto;html=1;startArrow=none;startFill=0;endArrow=classic;endFill=1;" parent="GJAqLuctV7d4QnNTkr7x-1" source="ObuP1BRHUFvKbwU8Xd-l-15" edge="1">
          <mxGeometry relative="1" as="geometry">
            <mxPoint x="1299.5" y="2751" as="targetPoint" />
          </mxGeometry>
        </mxCell>
        <mxCell id="ObuP1BRHUFvKbwU8Xd-l-15" value="Породить событие РТ2, ТМ2, Н2" style="ellipse;whiteSpace=wrap;html=1;" parent="GJAqLuctV7d4QnNTkr7x-1" vertex="1">
          <mxGeometry x="1229.5" y="2621" width="140" height="70" as="geometry" />
        </mxCell>
        <mxCell id="ObuP1BRHUFvKbwU8Xd-l-16" value="ДУ1 || ДУ4 || ДУ6" style="edgeStyle=orthogonalEdgeStyle;rounded=0;jumpStyle=arc;jumpSize=24;orthogonalLoop=1;jettySize=auto;html=1;startArrow=none;startFill=0;endArrow=classic;endFill=1;" parent="GJAqLuctV7d4QnNTkr7x-1" target="ObuP1BRHUFvKbwU8Xd-l-18" edge="1">
          <mxGeometry x="-0.3013" y="15" relative="1" as="geometry">
            <mxPoint x="1106" y="2816" as="sourcePoint" />
            <mxPoint as="offset" />
          </mxGeometry>
        </mxCell>
        <mxCell id="ObuP1BRHUFvKbwU8Xd-l-17" style="edgeStyle=orthogonalEdgeStyle;rounded=0;jumpStyle=arc;jumpSize=24;orthogonalLoop=1;jettySize=auto;html=1;startArrow=none;startFill=0;endArrow=classic;endFill=1;dashed=1;" parent="GJAqLuctV7d4QnNTkr7x-1" source="ObuP1BRHUFvKbwU8Xd-l-18" target="ObuP1BRHUFvKbwU8Xd-l-20" edge="1">
          <mxGeometry relative="1" as="geometry" />
        </mxCell>
        <mxCell id="ObuP1BRHUFvKbwU8Xd-l-18" value="Получить событие" style="ellipse;whiteSpace=wrap;html=1;" parent="GJAqLuctV7d4QnNTkr7x-1" vertex="1">
          <mxGeometry x="1204.5" y="2781" width="140" height="70" as="geometry" />
        </mxCell>
        <mxCell id="ObuP1BRHUFvKbwU8Xd-l-19" value="Состояние == &quot;Выключена&quot;" style="edgeStyle=none;rounded=0;jumpStyle=arc;jumpSize=24;orthogonalLoop=1;jettySize=auto;html=1;dashed=1;startArrow=none;startFill=0;endArrow=classic;endFill=1;" parent="GJAqLuctV7d4QnNTkr7x-1" source="ObuP1BRHUFvKbwU8Xd-l-20" target="ObuP1BRHUFvKbwU8Xd-l-27" edge="1">
          <mxGeometry x="0.6556" relative="1" as="geometry">
            <mxPoint as="offset" />
          </mxGeometry>
        </mxCell>
        <mxCell id="ObuP1BRHUFvKbwU8Xd-l-20" value="Проверить текущее состояние" style="ellipse;whiteSpace=wrap;html=1;" parent="GJAqLuctV7d4QnNTkr7x-1" vertex="1">
          <mxGeometry x="1424.5" y="2781" width="140" height="70" as="geometry" />
        </mxCell>
        <mxCell id="ObuP1BRHUFvKbwU8Xd-l-21" value="Состояние" style="rounded=0;jumpStyle=arc;jumpSize=24;orthogonalLoop=1;jettySize=auto;html=1;startArrow=none;startFill=0;endArrow=classic;endFill=1;" parent="GJAqLuctV7d4QnNTkr7x-1" source="ObuP1BRHUFvKbwU8Xd-l-22" target="ObuP1BRHUFvKbwU8Xd-l-24" edge="1">
          <mxGeometry relative="1" as="geometry" />
        </mxCell>
        <mxCell id="ObuP1BRHUFvKbwU8Xd-l-22" value="Духовка" style="shape=partialRectangle;whiteSpace=wrap;html=1;left=0;right=0;fillColor=none;" parent="GJAqLuctV7d4QnNTkr7x-1" vertex="1">
          <mxGeometry x="1719.5" y="2911" width="120" height="60" as="geometry" />
        </mxCell>
        <mxCell id="ObuP1BRHUFvKbwU8Xd-l-23" value="Состояние" style="rounded=0;jumpStyle=arc;jumpSize=24;orthogonalLoop=1;jettySize=auto;html=1;startArrow=none;startFill=0;endArrow=classic;endFill=1;" parent="GJAqLuctV7d4QnNTkr7x-1" source="ObuP1BRHUFvKbwU8Xd-l-24" target="ObuP1BRHUFvKbwU8Xd-l-20" edge="1">
          <mxGeometry relative="1" as="geometry" />
        </mxCell>
        <mxCell id="ObuP1BRHUFvKbwU8Xd-l-24" value="Считать состояние" style="ellipse;whiteSpace=wrap;html=1;" parent="GJAqLuctV7d4QnNTkr7x-1" vertex="1">
          <mxGeometry x="1709.5" y="2781" width="140" height="70" as="geometry" />
        </mxCell>
        <mxCell id="ObuP1BRHUFvKbwU8Xd-l-25" value="Состояние" style="edgeStyle=none;rounded=0;jumpStyle=arc;jumpSize=24;orthogonalLoop=1;jettySize=auto;html=1;startArrow=none;startFill=0;endArrow=classic;endFill=1;" parent="GJAqLuctV7d4QnNTkr7x-1" source="ObuP1BRHUFvKbwU8Xd-l-27" target="ObuP1BRHUFvKbwU8Xd-l-29" edge="1">
          <mxGeometry relative="1" as="geometry" />
        </mxCell>
        <mxCell id="ObuP1BRHUFvKbwU8Xd-l-27" value="Изменить состояние на &quot;В режиме ожидания&quot;" style="ellipse;whiteSpace=wrap;html=1;" parent="GJAqLuctV7d4QnNTkr7x-1" vertex="1">
          <mxGeometry x="1424.5" y="3031" width="140" height="70" as="geometry" />
        </mxCell>
        <mxCell id="ObuP1BRHUFvKbwU8Xd-l-28" value="Состояние" style="edgeStyle=none;rounded=0;jumpStyle=arc;jumpSize=24;orthogonalLoop=1;jettySize=auto;html=1;startArrow=none;startFill=0;endArrow=classic;endFill=1;" parent="GJAqLuctV7d4QnNTkr7x-1" source="ObuP1BRHUFvKbwU8Xd-l-29" target="ObuP1BRHUFvKbwU8Xd-l-22" edge="1">
          <mxGeometry relative="1" as="geometry" />
        </mxCell>
        <mxCell id="ObuP1BRHUFvKbwU8Xd-l-29" value="Записать состояние" style="ellipse;whiteSpace=wrap;html=1;" parent="GJAqLuctV7d4QnNTkr7x-1" vertex="1">
          <mxGeometry x="1709.5" y="3031" width="140" height="70" as="geometry" />
        </mxCell>
        <mxCell id="ObuP1BRHUFvKbwU8Xd-l-30" style="edgeStyle=none;rounded=0;jumpStyle=arc;jumpSize=24;orthogonalLoop=1;jettySize=auto;html=1;startArrow=none;startFill=0;endArrow=classic;endFill=1;" parent="GJAqLuctV7d4QnNTkr7x-1" source="ObuP1BRHUFvKbwU8Xd-l-31" edge="1">
          <mxGeometry relative="1" as="geometry">
            <mxPoint x="1275" y="3190" as="targetPoint" />
          </mxGeometry>
        </mxCell>
        <mxCell id="ObuP1BRHUFvKbwU8Xd-l-31" value="Породить событие РТ2, Н2" style="ellipse;whiteSpace=wrap;html=1;" parent="GJAqLuctV7d4QnNTkr7x-1" vertex="1">
          <mxGeometry x="1204.5" y="3031" width="140" height="70" as="geometry" />
        </mxCell>
        <mxCell id="ObuP1BRHUFvKbwU8Xd-l-107" value="" style="endArrow=none;html=1;rounded=0;dashed=1;dashPattern=1 2;strokeWidth=2;" parent="GJAqLuctV7d4QnNTkr7x-1" edge="1">
          <mxGeometry width="50" height="50" relative="1" as="geometry">
            <mxPoint x="1063" y="2761" as="sourcePoint" />
            <mxPoint x="1883" y="2761" as="targetPoint" />
          </mxGeometry>
        </mxCell>
        <mxCell id="ObuP1BRHUFvKbwU8Xd-l-108" value="" style="endArrow=none;html=1;rounded=0;dashed=1;dashPattern=1 2;strokeWidth=2;" parent="GJAqLuctV7d4QnNTkr7x-1" edge="1">
          <mxGeometry width="50" height="50" relative="1" as="geometry">
            <mxPoint x="1059.5" y="3270" as="sourcePoint" />
            <mxPoint x="1879.5" y="3270" as="targetPoint" />
          </mxGeometry>
        </mxCell>
        <mxCell id="tTJblMBt0XMgxkh5hGDj-0" value="&lt;b&gt;1. Выключен&lt;/b&gt;" style="text;html=1;align=center;verticalAlign=middle;whiteSpace=wrap;rounded=0;" vertex="1" parent="GJAqLuctV7d4QnNTkr7x-1">
          <mxGeometry x="990" y="2350" width="120" height="40" as="geometry" />
        </mxCell>
        <mxCell id="nJPf5a2xWcfriwnHj7nQ-0" value="&lt;b&gt;2. В режиме ожидания&lt;/b&gt;" style="text;html=1;align=center;verticalAlign=middle;whiteSpace=wrap;rounded=0;" vertex="1" parent="GJAqLuctV7d4QnNTkr7x-1">
          <mxGeometry x="920" y="2760" width="150" height="40" as="geometry" />
        </mxCell>
        <mxCell id="rnJxkeyUr5UmSZZRpi2_-0" value="Состояние == &quot;В процессе приготовления&quot;" style="edgeStyle=orthogonalEdgeStyle;rounded=0;jumpStyle=arc;jumpSize=24;orthogonalLoop=1;jettySize=auto;html=1;dashed=1;startArrow=none;startFill=0;endArrow=classic;endFill=1;entryX=0.5;entryY=0;entryDx=0;entryDy=0;exitX=0.5;exitY=1;exitDx=0;exitDy=0;" edge="1" parent="GJAqLuctV7d4QnNTkr7x-1" source="ObuP1BRHUFvKbwU8Xd-l-20" target="ObuP1BRHUFvKbwU8Xd-l-31">
          <mxGeometry x="0.0725" y="-1" relative="1" as="geometry">
            <mxPoint x="1" as="offset" />
            <mxPoint x="1505" y="2861" as="sourcePoint" />
            <mxPoint x="1274.5" y="3031" as="targetPoint" />
          </mxGeometry>
        </mxCell>
        <mxCell id="rnJxkeyUr5UmSZZRpi2_-3" value="" style="edgeStyle=none;rounded=0;jumpStyle=arc;jumpSize=24;orthogonalLoop=1;jettySize=auto;html=1;dashed=1;startArrow=none;startFill=0;endArrow=classic;endFill=1;exitX=1;exitY=0.5;exitDx=0;exitDy=0;entryX=0;entryY=0.5;entryDx=0;entryDy=0;" edge="1" parent="GJAqLuctV7d4QnNTkr7x-1" source="ObuP1BRHUFvKbwU8Xd-l-31" target="ObuP1BRHUFvKbwU8Xd-l-27">
          <mxGeometry x="0.6556" relative="1" as="geometry">
            <mxPoint as="offset" />
            <mxPoint x="1409.5" y="3110" as="sourcePoint" />
            <mxPoint x="1409.5" y="3290" as="targetPoint" />
          </mxGeometry>
        </mxCell>
        <mxCell id="SB8aOT7UZJ9OO9EbyvGg-0" value="Породить событие ТМ2" style="ellipse;whiteSpace=wrap;html=1;" vertex="1" parent="GJAqLuctV7d4QnNTkr7x-1">
          <mxGeometry x="1036" y="3031" width="140" height="70" as="geometry" />
        </mxCell>
        <mxCell id="SB8aOT7UZJ9OO9EbyvGg-1" value="Состояние == &quot;Таймер установлен&quot;" style="edgeStyle=orthogonalEdgeStyle;rounded=0;jumpStyle=arc;jumpSize=24;orthogonalLoop=1;jettySize=auto;html=1;dashed=1;startArrow=none;startFill=0;endArrow=classic;endFill=1;entryX=0.5;entryY=0;entryDx=0;entryDy=0;exitX=0.5;exitY=1;exitDx=0;exitDy=0;" edge="1" parent="GJAqLuctV7d4QnNTkr7x-1" source="ObuP1BRHUFvKbwU8Xd-l-20" target="SB8aOT7UZJ9OO9EbyvGg-0">
          <mxGeometry x="0.0725" y="-1" relative="1" as="geometry">
            <mxPoint x="1" as="offset" />
            <mxPoint x="1505" y="2861" as="sourcePoint" />
            <mxPoint x="1285" y="3041" as="targetPoint" />
            <Array as="points">
              <mxPoint x="1495" y="2900" />
              <mxPoint x="1106" y="2900" />
            </Array>
          </mxGeometry>
        </mxCell>
        <mxCell id="SB8aOT7UZJ9OO9EbyvGg-2" style="edgeStyle=none;rounded=0;jumpStyle=arc;jumpSize=24;orthogonalLoop=1;jettySize=auto;html=1;startArrow=none;startFill=0;endArrow=classic;endFill=1;exitX=0.5;exitY=1;exitDx=0;exitDy=0;" edge="1" parent="GJAqLuctV7d4QnNTkr7x-1" source="SB8aOT7UZJ9OO9EbyvGg-0">
          <mxGeometry relative="1" as="geometry">
            <mxPoint x="1106" y="3180" as="targetPoint" />
            <mxPoint x="1285" y="3111" as="sourcePoint" />
          </mxGeometry>
        </mxCell>
        <mxCell id="5wxsY-55BYYOAjN8KL-z-0" value="ДУ3 || ДУ7" style="edgeStyle=orthogonalEdgeStyle;rounded=0;jumpStyle=arc;jumpSize=24;orthogonalLoop=1;jettySize=auto;html=1;startArrow=none;startFill=0;endArrow=classic;endFill=1;" edge="1" parent="GJAqLuctV7d4QnNTkr7x-1" target="5wxsY-55BYYOAjN8KL-z-2">
          <mxGeometry x="-0.3013" y="15" relative="1" as="geometry">
            <mxPoint x="1130" y="3335" as="sourcePoint" />
            <mxPoint as="offset" />
          </mxGeometry>
        </mxCell>
        <mxCell id="5wxsY-55BYYOAjN8KL-z-1" style="edgeStyle=orthogonalEdgeStyle;rounded=0;jumpStyle=arc;jumpSize=24;orthogonalLoop=1;jettySize=auto;html=1;startArrow=none;startFill=0;endArrow=classic;endFill=1;dashed=1;" edge="1" parent="GJAqLuctV7d4QnNTkr7x-1" source="5wxsY-55BYYOAjN8KL-z-2" target="5wxsY-55BYYOAjN8KL-z-4">
          <mxGeometry relative="1" as="geometry" />
        </mxCell>
        <mxCell id="5wxsY-55BYYOAjN8KL-z-2" value="Получить событие" style="ellipse;whiteSpace=wrap;html=1;" vertex="1" parent="GJAqLuctV7d4QnNTkr7x-1">
          <mxGeometry x="1228.5" y="3300" width="140" height="70" as="geometry" />
        </mxCell>
        <mxCell id="5wxsY-55BYYOAjN8KL-z-3" value="&lt;div&gt;Состояние == &quot;В процессе приготовления&quot;&lt;/div&gt;" style="edgeStyle=none;rounded=0;jumpStyle=arc;jumpSize=24;orthogonalLoop=1;jettySize=auto;html=1;dashed=1;startArrow=none;startFill=0;endArrow=classic;endFill=1;" edge="1" parent="GJAqLuctV7d4QnNTkr7x-1" source="5wxsY-55BYYOAjN8KL-z-4" target="5wxsY-55BYYOAjN8KL-z-10">
          <mxGeometry x="0.5556" relative="1" as="geometry">
            <mxPoint as="offset" />
          </mxGeometry>
        </mxCell>
        <mxCell id="5wxsY-55BYYOAjN8KL-z-4" value="Проверить текущее состояние" style="ellipse;whiteSpace=wrap;html=1;" vertex="1" parent="GJAqLuctV7d4QnNTkr7x-1">
          <mxGeometry x="1448.5" y="3300" width="140" height="70" as="geometry" />
        </mxCell>
        <mxCell id="5wxsY-55BYYOAjN8KL-z-5" value="Состояние" style="rounded=0;jumpStyle=arc;jumpSize=24;orthogonalLoop=1;jettySize=auto;html=1;startArrow=none;startFill=0;endArrow=classic;endFill=1;" edge="1" parent="GJAqLuctV7d4QnNTkr7x-1" source="5wxsY-55BYYOAjN8KL-z-6" target="5wxsY-55BYYOAjN8KL-z-8">
          <mxGeometry relative="1" as="geometry" />
        </mxCell>
        <mxCell id="5wxsY-55BYYOAjN8KL-z-6" value="Духовка" style="shape=partialRectangle;whiteSpace=wrap;html=1;left=0;right=0;fillColor=none;" vertex="1" parent="GJAqLuctV7d4QnNTkr7x-1">
          <mxGeometry x="1743.5" y="3430" width="120" height="60" as="geometry" />
        </mxCell>
        <mxCell id="5wxsY-55BYYOAjN8KL-z-7" value="Состояние" style="rounded=0;jumpStyle=arc;jumpSize=24;orthogonalLoop=1;jettySize=auto;html=1;startArrow=none;startFill=0;endArrow=classic;endFill=1;" edge="1" parent="GJAqLuctV7d4QnNTkr7x-1" source="5wxsY-55BYYOAjN8KL-z-8" target="5wxsY-55BYYOAjN8KL-z-4">
          <mxGeometry relative="1" as="geometry" />
        </mxCell>
        <mxCell id="5wxsY-55BYYOAjN8KL-z-8" value="Считать состояние" style="ellipse;whiteSpace=wrap;html=1;" vertex="1" parent="GJAqLuctV7d4QnNTkr7x-1">
          <mxGeometry x="1733.5" y="3300" width="140" height="70" as="geometry" />
        </mxCell>
        <mxCell id="5wxsY-55BYYOAjN8KL-z-9" value="Состояние" style="edgeStyle=none;rounded=0;jumpStyle=arc;jumpSize=24;orthogonalLoop=1;jettySize=auto;html=1;startArrow=none;startFill=0;endArrow=classic;endFill=1;" edge="1" parent="GJAqLuctV7d4QnNTkr7x-1" source="5wxsY-55BYYOAjN8KL-z-10" target="5wxsY-55BYYOAjN8KL-z-12">
          <mxGeometry relative="1" as="geometry" />
        </mxCell>
        <mxCell id="5wxsY-55BYYOAjN8KL-z-10" value="Изменить состояние на &quot;В процессе приготовления&quot;" style="ellipse;whiteSpace=wrap;html=1;" vertex="1" parent="GJAqLuctV7d4QnNTkr7x-1">
          <mxGeometry x="1448.5" y="3550" width="140" height="70" as="geometry" />
        </mxCell>
        <mxCell id="5wxsY-55BYYOAjN8KL-z-11" value="Состояние" style="edgeStyle=none;rounded=0;jumpStyle=arc;jumpSize=24;orthogonalLoop=1;jettySize=auto;html=1;startArrow=none;startFill=0;endArrow=classic;endFill=1;" edge="1" parent="GJAqLuctV7d4QnNTkr7x-1" source="5wxsY-55BYYOAjN8KL-z-12" target="5wxsY-55BYYOAjN8KL-z-6">
          <mxGeometry relative="1" as="geometry" />
        </mxCell>
        <mxCell id="5wxsY-55BYYOAjN8KL-z-12" value="Записать состояние" style="ellipse;whiteSpace=wrap;html=1;" vertex="1" parent="GJAqLuctV7d4QnNTkr7x-1">
          <mxGeometry x="1733.5" y="3550" width="140" height="70" as="geometry" />
        </mxCell>
        <mxCell id="5wxsY-55BYYOAjN8KL-z-13" style="edgeStyle=none;rounded=0;jumpStyle=arc;jumpSize=24;orthogonalLoop=1;jettySize=auto;html=1;startArrow=none;startFill=0;endArrow=classic;endFill=1;" edge="1" parent="GJAqLuctV7d4QnNTkr7x-1" source="5wxsY-55BYYOAjN8KL-z-14">
          <mxGeometry relative="1" as="geometry">
            <mxPoint x="1299" y="3709" as="targetPoint" />
          </mxGeometry>
        </mxCell>
        <mxCell id="5wxsY-55BYYOAjN8KL-z-14" value="Породить событие Н1" style="ellipse;whiteSpace=wrap;html=1;" vertex="1" parent="GJAqLuctV7d4QnNTkr7x-1">
          <mxGeometry x="1228.5" y="3550" width="140" height="70" as="geometry" />
        </mxCell>
        <mxCell id="5wxsY-55BYYOAjN8KL-z-15" value="Состояние == &quot;В режиме ожидания&quot;" style="edgeStyle=orthogonalEdgeStyle;rounded=0;jumpStyle=arc;jumpSize=24;orthogonalLoop=1;jettySize=auto;html=1;dashed=1;startArrow=none;startFill=0;endArrow=classic;endFill=1;entryX=0.5;entryY=0;entryDx=0;entryDy=0;exitX=0.5;exitY=1;exitDx=0;exitDy=0;" edge="1" parent="GJAqLuctV7d4QnNTkr7x-1" source="5wxsY-55BYYOAjN8KL-z-4" target="5wxsY-55BYYOAjN8KL-z-14">
          <mxGeometry x="0.0725" y="-1" relative="1" as="geometry">
            <mxPoint x="1" as="offset" />
            <mxPoint x="1529" y="3380" as="sourcePoint" />
            <mxPoint x="1298.5" y="3550" as="targetPoint" />
          </mxGeometry>
        </mxCell>
        <mxCell id="5wxsY-55BYYOAjN8KL-z-16" value="" style="edgeStyle=none;rounded=0;jumpStyle=arc;jumpSize=24;orthogonalLoop=1;jettySize=auto;html=1;dashed=1;startArrow=none;startFill=0;endArrow=classic;endFill=1;exitX=1;exitY=0.5;exitDx=0;exitDy=0;entryX=0;entryY=0.5;entryDx=0;entryDy=0;" edge="1" parent="GJAqLuctV7d4QnNTkr7x-1" source="5wxsY-55BYYOAjN8KL-z-14" target="5wxsY-55BYYOAjN8KL-z-10">
          <mxGeometry x="0.6556" relative="1" as="geometry">
            <mxPoint as="offset" />
            <mxPoint x="1433.5" y="3629" as="sourcePoint" />
            <mxPoint x="1433.5" y="3809" as="targetPoint" />
          </mxGeometry>
        </mxCell>
        <mxCell id="5wxsY-55BYYOAjN8KL-z-21" value="&lt;b&gt;3. В процессе приготовления&lt;/b&gt;" style="text;html=1;align=center;verticalAlign=middle;whiteSpace=wrap;rounded=0;" vertex="1" parent="GJAqLuctV7d4QnNTkr7x-1">
          <mxGeometry x="920" y="3290" width="190" height="40" as="geometry" />
        </mxCell>
        <mxCell id="VDtuwCZ4hdFv10e9M1t_-0" value="" style="edgeStyle=none;rounded=0;jumpStyle=arc;jumpSize=24;orthogonalLoop=1;jettySize=auto;html=1;dashed=1;startArrow=none;startFill=0;endArrow=classic;endFill=1;exitX=1;exitY=0.5;exitDx=0;exitDy=0;" edge="1" parent="GJAqLuctV7d4QnNTkr7x-1">
          <mxGeometry x="0.6556" relative="1" as="geometry">
            <mxPoint as="offset" />
            <mxPoint x="1176" y="3065.5" as="sourcePoint" />
            <mxPoint x="1200" y="3066" as="targetPoint" />
          </mxGeometry>
        </mxCell>
        <mxCell id="dqTms6UoQlmlpqiQMDNu-0" value="Породить событие ТМ2" style="ellipse;whiteSpace=wrap;html=1;" vertex="1" parent="GJAqLuctV7d4QnNTkr7x-1">
          <mxGeometry x="1010" y="3550" width="140" height="70" as="geometry" />
        </mxCell>
        <mxCell id="dqTms6UoQlmlpqiQMDNu-1" value="Состояние == &quot;Таймер установлен&quot;" style="edgeStyle=orthogonalEdgeStyle;rounded=0;jumpStyle=arc;jumpSize=24;orthogonalLoop=1;jettySize=auto;html=1;dashed=1;startArrow=none;startFill=0;endArrow=classic;endFill=1;entryX=0.5;entryY=0;entryDx=0;entryDy=0;exitX=0.5;exitY=1;exitDx=0;exitDy=0;" edge="1" parent="GJAqLuctV7d4QnNTkr7x-1" source="5wxsY-55BYYOAjN8KL-z-4" target="dqTms6UoQlmlpqiQMDNu-0">
          <mxGeometry x="0.0725" y="-1" relative="1" as="geometry">
            <mxPoint x="1" as="offset" />
            <mxPoint x="1529" y="3380" as="sourcePoint" />
            <mxPoint x="1309" y="3560" as="targetPoint" />
            <Array as="points">
              <mxPoint x="1519" y="3420" />
              <mxPoint x="1080" y="3420" />
            </Array>
          </mxGeometry>
        </mxCell>
        <mxCell id="dqTms6UoQlmlpqiQMDNu-2" value="" style="edgeStyle=orthogonalEdgeStyle;rounded=0;jumpStyle=arc;jumpSize=24;orthogonalLoop=1;jettySize=auto;html=1;dashed=1;startArrow=none;startFill=0;endArrow=classic;endFill=1;exitX=1;exitY=0.5;exitDx=0;exitDy=0;entryX=0;entryY=0.5;entryDx=0;entryDy=0;" edge="1" parent="GJAqLuctV7d4QnNTkr7x-1" source="dqTms6UoQlmlpqiQMDNu-0" target="5wxsY-55BYYOAjN8KL-z-10">
          <mxGeometry x="0.6556" relative="1" as="geometry">
            <mxPoint as="offset" />
            <mxPoint x="1379" y="3595" as="sourcePoint" />
            <mxPoint x="1410" y="3700" as="targetPoint" />
            <Array as="points">
              <mxPoint x="1200" y="3585" />
              <mxPoint x="1200" y="3740" />
              <mxPoint x="1411" y="3740" />
              <mxPoint x="1411" y="3585" />
            </Array>
          </mxGeometry>
        </mxCell>
        <mxCell id="dqTms6UoQlmlpqiQMDNu-3" style="edgeStyle=none;rounded=0;jumpStyle=arc;jumpSize=24;orthogonalLoop=1;jettySize=auto;html=1;startArrow=none;startFill=0;endArrow=classic;endFill=1;" edge="1" parent="GJAqLuctV7d4QnNTkr7x-1">
          <mxGeometry relative="1" as="geometry">
            <mxPoint x="1079.5" y="3709" as="targetPoint" />
            <mxPoint x="1079.5" y="3620" as="sourcePoint" />
          </mxGeometry>
        </mxCell>
        <mxCell id="dqTms6UoQlmlpqiQMDNu-4" value="" style="endArrow=none;html=1;rounded=0;dashed=1;dashPattern=1 2;strokeWidth=2;" edge="1" parent="GJAqLuctV7d4QnNTkr7x-1">
          <mxGeometry width="50" height="50" relative="1" as="geometry">
            <mxPoint x="1053.5" y="3809" as="sourcePoint" />
            <mxPoint x="1873.5" y="3809" as="targetPoint" />
          </mxGeometry>
        </mxCell>
        <mxCell id="y7nMkL89tBMlpVdq7kBm-0" value="ДУ5" style="edgeStyle=orthogonalEdgeStyle;rounded=0;jumpStyle=arc;jumpSize=24;orthogonalLoop=1;jettySize=auto;html=1;startArrow=none;startFill=0;endArrow=classic;endFill=1;" edge="1" parent="GJAqLuctV7d4QnNTkr7x-1" target="y7nMkL89tBMlpVdq7kBm-2">
          <mxGeometry x="-0.3013" y="15" relative="1" as="geometry">
            <mxPoint x="1120" y="3895" as="sourcePoint" />
            <mxPoint as="offset" />
          </mxGeometry>
        </mxCell>
        <mxCell id="y7nMkL89tBMlpVdq7kBm-1" style="edgeStyle=orthogonalEdgeStyle;rounded=0;jumpStyle=arc;jumpSize=24;orthogonalLoop=1;jettySize=auto;html=1;startArrow=none;startFill=0;endArrow=classic;endFill=1;dashed=1;" edge="1" parent="GJAqLuctV7d4QnNTkr7x-1" source="y7nMkL89tBMlpVdq7kBm-2" target="y7nMkL89tBMlpVdq7kBm-4">
          <mxGeometry relative="1" as="geometry" />
        </mxCell>
        <mxCell id="y7nMkL89tBMlpVdq7kBm-2" value="Получить событие" style="ellipse;whiteSpace=wrap;html=1;" vertex="1" parent="GJAqLuctV7d4QnNTkr7x-1">
          <mxGeometry x="1218.5" y="3860" width="140" height="70" as="geometry" />
        </mxCell>
        <mxCell id="y7nMkL89tBMlpVdq7kBm-3" value="&lt;div&gt;Состояние == &quot;Таймер установлен&quot; ||&amp;nbsp;&lt;/div&gt;&lt;div&gt;Состояние == &quot;В процессе приготовления&quot;&lt;/div&gt;" style="edgeStyle=none;rounded=0;jumpStyle=arc;jumpSize=24;orthogonalLoop=1;jettySize=auto;html=1;dashed=1;startArrow=none;startFill=0;endArrow=classic;endFill=1;" edge="1" parent="GJAqLuctV7d4QnNTkr7x-1" source="y7nMkL89tBMlpVdq7kBm-4" target="y7nMkL89tBMlpVdq7kBm-10">
          <mxGeometry x="0.5556" relative="1" as="geometry">
            <mxPoint as="offset" />
          </mxGeometry>
        </mxCell>
        <mxCell id="y7nMkL89tBMlpVdq7kBm-4" value="Проверить текущее состояние" style="ellipse;whiteSpace=wrap;html=1;" vertex="1" parent="GJAqLuctV7d4QnNTkr7x-1">
          <mxGeometry x="1438.5" y="3860" width="140" height="70" as="geometry" />
        </mxCell>
        <mxCell id="y7nMkL89tBMlpVdq7kBm-5" value="Состояние" style="rounded=0;jumpStyle=arc;jumpSize=24;orthogonalLoop=1;jettySize=auto;html=1;startArrow=none;startFill=0;endArrow=classic;endFill=1;" edge="1" parent="GJAqLuctV7d4QnNTkr7x-1" source="y7nMkL89tBMlpVdq7kBm-6" target="y7nMkL89tBMlpVdq7kBm-8">
          <mxGeometry relative="1" as="geometry" />
        </mxCell>
        <mxCell id="y7nMkL89tBMlpVdq7kBm-6" value="Духовка" style="shape=partialRectangle;whiteSpace=wrap;html=1;left=0;right=0;fillColor=none;" vertex="1" parent="GJAqLuctV7d4QnNTkr7x-1">
          <mxGeometry x="1733.5" y="3990" width="120" height="60" as="geometry" />
        </mxCell>
        <mxCell id="y7nMkL89tBMlpVdq7kBm-7" value="Состояние" style="rounded=0;jumpStyle=arc;jumpSize=24;orthogonalLoop=1;jettySize=auto;html=1;startArrow=none;startFill=0;endArrow=classic;endFill=1;" edge="1" parent="GJAqLuctV7d4QnNTkr7x-1" source="y7nMkL89tBMlpVdq7kBm-8" target="y7nMkL89tBMlpVdq7kBm-4">
          <mxGeometry relative="1" as="geometry" />
        </mxCell>
        <mxCell id="y7nMkL89tBMlpVdq7kBm-8" value="Считать состояние" style="ellipse;whiteSpace=wrap;html=1;" vertex="1" parent="GJAqLuctV7d4QnNTkr7x-1">
          <mxGeometry x="1723.5" y="3860" width="140" height="70" as="geometry" />
        </mxCell>
        <mxCell id="y7nMkL89tBMlpVdq7kBm-9" value="Состояние" style="edgeStyle=none;rounded=0;jumpStyle=arc;jumpSize=24;orthogonalLoop=1;jettySize=auto;html=1;startArrow=none;startFill=0;endArrow=classic;endFill=1;" edge="1" parent="GJAqLuctV7d4QnNTkr7x-1" source="y7nMkL89tBMlpVdq7kBm-10" target="y7nMkL89tBMlpVdq7kBm-12">
          <mxGeometry relative="1" as="geometry" />
        </mxCell>
        <mxCell id="y7nMkL89tBMlpVdq7kBm-10" value="Изменить состояние на &quot;Таймер установлен&quot;" style="ellipse;whiteSpace=wrap;html=1;" vertex="1" parent="GJAqLuctV7d4QnNTkr7x-1">
          <mxGeometry x="1438.5" y="4110" width="140" height="70" as="geometry" />
        </mxCell>
        <mxCell id="y7nMkL89tBMlpVdq7kBm-11" value="Состояние" style="edgeStyle=none;rounded=0;jumpStyle=arc;jumpSize=24;orthogonalLoop=1;jettySize=auto;html=1;startArrow=none;startFill=0;endArrow=classic;endFill=1;" edge="1" parent="GJAqLuctV7d4QnNTkr7x-1" source="y7nMkL89tBMlpVdq7kBm-12" target="y7nMkL89tBMlpVdq7kBm-6">
          <mxGeometry relative="1" as="geometry" />
        </mxCell>
        <mxCell id="y7nMkL89tBMlpVdq7kBm-12" value="Записать состояние" style="ellipse;whiteSpace=wrap;html=1;" vertex="1" parent="GJAqLuctV7d4QnNTkr7x-1">
          <mxGeometry x="1723.5" y="4110" width="140" height="70" as="geometry" />
        </mxCell>
        <mxCell id="y7nMkL89tBMlpVdq7kBm-17" value="&lt;b&gt;4. Таймер установлен&lt;/b&gt;" style="text;html=1;align=center;verticalAlign=middle;whiteSpace=wrap;rounded=0;" vertex="1" parent="GJAqLuctV7d4QnNTkr7x-1">
          <mxGeometry x="910" y="3850" width="190" height="40" as="geometry" />
        </mxCell>
      </root>
    </mxGraphModel>
  </diagram>
</mxfile>
